<?xml version="1.0" encoding="utf-8" standalone="no"?>
<!DOCTYPE svg PUBLIC "-//W3C//DTD SVG 1.1//EN"
  "http://www.w3.org/Graphics/SVG/1.1/DTD/svg11.dtd">
<svg xmlns:xlink="http://www.w3.org/1999/xlink" width="872.4pt" height="405.057345pt" viewBox="0 0 872.4 405.057345" xmlns="http://www.w3.org/2000/svg" version="1.1">
 <metadata>
  <rdf:RDF xmlns:dc="http://purl.org/dc/elements/1.1/" xmlns:cc="http://creativecommons.org/ns#" xmlns:rdf="http://www.w3.org/1999/02/22-rdf-syntax-ns#">
   <cc:Work>
    <dc:type rdf:resource="http://purl.org/dc/dcmitype/StillImage"/>
    <dc:date>2026-05-26T02:44:06.418992</dc:date>
    <dc:format>image/svg+xml</dc:format>
    <dc:creator>
     <cc:Agent>
      <dc:title>Matplotlib v3.10.9, https://matplotlib.org/</dc:title>
     </cc:Agent>
    </dc:creator>
   </cc:Work>
  </rdf:RDF>
 </metadata>
 <defs>
  <style type="text/css">*{stroke-linejoin: round; stroke-linecap: butt}</style>
 </defs>
 <g id="figure_1">
  <g id="patch_1">
   <path d="M 0 405.057345 
L 872.4 405.057345 
L 872.4 0 
L 0 0 
z
" style="fill: #ffffff"/>
  </g>
  <g id="axes_1">
   <g id="patch_2">
    <path d="M 35.8 360.348145 
L 214.55 360.348145 
Q 221.7 360.348145 221.7 356.180456 
L 221.7 314.503567 
Q 221.7 310.335878 214.55 310.335878 
L 35.8 310.335878 
Q 28.65 310.335878 28.65 314.503567 
L 28.65 356.180456 
Q 28.65 360.348145 35.8 360.348145 
z
" clip-path="url(#p9684b61e42)" style="fill: #e3f2fd; stroke: #90caf9; stroke-linejoin: miter"/>
   </g>
   <g id="patch_3">
    <path d="M 250.3 360.348145 
L 429.05 360.348145 
Q 436.2 360.348145 436.2 356.180456 
L 436.2 314.503567 
Q 436.2 310.335878 429.05 310.335878 
L 250.3 310.335878 
Q 243.15 310.335878 243.15 314.503567 
L 243.15 356.180456 
Q 243.15 360.348145 250.3 360.348145 
z
" clip-path="url(#p9684b61e42)" style="fill: #fff3e0; stroke: #ffb74d; stroke-linejoin: miter"/>
   </g>
   <g id="patch_4">
    <path d="M 464.8 360.348145 
L 643.55 360.348145 
Q 650.7 360.348145 650.7 356.180456 
L 650.7 314.503567 
Q 650.7 310.335878 643.55 310.335878 
L 464.8 310.335878 
Q 457.65 310.335878 457.65 314.503567 
L 457.65 356.180456 
Q 457.65 360.348145 464.8 360.348145 
z
" clip-path="url(#p9684b61e42)" style="fill: #f3e5f5; stroke-dasharray: 3.7,1.6; stroke-dashoffset: 0; stroke: #ce93d8; stroke-linejoin: miter"/>
   </g>
   <g id="line2d_1">
    <path d="M 436.2 56.106856 
L 436.2 85.280678 
" clip-path="url(#p9684b61e42)" style="fill: none; stroke: #bdbdbd; stroke-width: 0.8; stroke-linecap: square"/>
   </g>
   <g id="line2d_2">
    <path d="M 436.2 85.280678 
L 78.7 85.280678 
" clip-path="url(#p9684b61e42)" style="fill: none; stroke: #bdbdbd; stroke-width: 0.8; stroke-linecap: square"/>
   </g>
   <g id="line2d_3">
    <path d="M 78.7 85.280678 
L 78.7 112.370656 
" clip-path="url(#p9684b61e42)" style="fill: none; stroke: #bdbdbd; stroke-width: 0.8; stroke-linecap: square"/>
   </g>
   <g id="line2d_4">
    <path d="M 436.2 56.106856 
L 436.2 85.280678 
" clip-path="url(#p9684b61e42)" style="fill: none; stroke: #bdbdbd; stroke-width: 0.8; stroke-linecap: square"/>
   </g>
   <g id="line2d_5">
    <path d="M 436.2 85.280678 
L 164.5 85.280678 
" clip-path="url(#p9684b61e42)" style="fill: none; stroke: #bdbdbd; stroke-width: 0.8; stroke-linecap: square"/>
   </g>
   <g id="line2d_6">
    <path d="M 164.5 85.280678 
L 164.5 112.370656 
" clip-path="url(#p9684b61e42)" style="fill: none; stroke: #bdbdbd; stroke-width: 0.8; stroke-linecap: square"/>
   </g>
   <g id="line2d_7">
    <path d="M 436.2 56.106856 
L 436.2 85.280678 
" clip-path="url(#p9684b61e42)" style="fill: none; stroke: #bdbdbd; stroke-width: 0.8; stroke-linecap: square"/>
   </g>
   <g id="line2d_8">
    <path d="M 436.2 85.280678 
L 250.3 85.280678 
" clip-path="url(#p9684b61e42)" style="fill: none; stroke: #bdbdbd; stroke-width: 0.8; stroke-linecap: square"/>
   </g>
   <g id="line2d_9">
    <path d="M 250.3 85.280678 
L 250.3 112.370656 
" clip-path="url(#p9684b61e42)" style="fill: none; stroke: #bdbdbd; stroke-width: 0.8; stroke-linecap: square"/>
   </g>
   <g id="line2d_10">
    <path d="M 436.2 56.106856 
L 436.2 85.280678 
" clip-path="url(#p9684b61e42)" style="fill: none; stroke: #bdbdbd; stroke-width: 0.8; stroke-linecap: square"/>
   </g>
   <g id="line2d_11">
    <path d="M 436.2 85.280678 
L 336.1 85.280678 
" clip-path="url(#p9684b61e42)" style="fill: none; stroke: #bdbdbd; stroke-width: 0.8; stroke-linecap: square"/>
   </g>
   <g id="line2d_12">
    <path d="M 336.1 85.280678 
L 336.1 112.370656 
" clip-path="url(#p9684b61e42)" style="fill: none; stroke: #bdbdbd; stroke-width: 0.8; stroke-linecap: square"/>
   </g>
   <g id="line2d_13">
    <path d="M 436.2 56.106856 
L 436.2 85.280678 
" clip-path="url(#p9684b61e42)" style="fill: none; stroke: #bdbdbd; stroke-width: 0.8; stroke-linecap: square"/>
   </g>
   <g id="line2d_14">
    <path d="M 436.2 85.280678 
L 436.2 85.280678 
" clip-path="url(#p9684b61e42)" style="fill: none; stroke: #bdbdbd; stroke-width: 0.8; stroke-linecap: square"/>
   </g>
   <g id="line2d_15">
    <path d="M 436.2 85.280678 
L 436.2 112.370656 
" clip-path="url(#p9684b61e42)" style="fill: none; stroke: #bdbdbd; stroke-width: 0.8; stroke-linecap: square"/>
   </g>
   <g id="line2d_16">
    <path d="M 436.2 56.106856 
L 436.2 85.280678 
" clip-path="url(#p9684b61e42)" style="fill: none; stroke: #bdbdbd; stroke-width: 0.8; stroke-linecap: square"/>
   </g>
   <g id="line2d_17">
    <path d="M 436.2 85.280678 
L 536.3 85.280678 
" clip-path="url(#p9684b61e42)" style="fill: none; stroke: #bdbdbd; stroke-width: 0.8; stroke-linecap: square"/>
   </g>
   <g id="line2d_18">
    <path d="M 536.3 85.280678 
L 536.3 112.370656 
" clip-path="url(#p9684b61e42)" style="fill: none; stroke: #bdbdbd; stroke-width: 0.8; stroke-linecap: square"/>
   </g>
   <g id="line2d_19">
    <path d="M 436.2 56.106856 
L 436.2 85.280678 
" clip-path="url(#p9684b61e42)" style="fill: none; stroke: #bdbdbd; stroke-width: 0.8; stroke-linecap: square"/>
   </g>
   <g id="line2d_20">
    <path d="M 436.2 85.280678 
L 622.1 85.280678 
" clip-path="url(#p9684b61e42)" style="fill: none; stroke: #bdbdbd; stroke-width: 0.8; stroke-linecap: square"/>
   </g>
   <g id="line2d_21">
    <path d="M 622.1 85.280678 
L 622.1 112.370656 
" clip-path="url(#p9684b61e42)" style="fill: none; stroke: #bdbdbd; stroke-width: 0.8; stroke-linecap: square"/>
   </g>
   <g id="line2d_22">
    <path d="M 436.2 56.106856 
L 436.2 85.280678 
" clip-path="url(#p9684b61e42)" style="fill: none; stroke: #bdbdbd; stroke-width: 0.8; stroke-linecap: square"/>
   </g>
   <g id="line2d_23">
    <path d="M 436.2 85.280678 
L 707.9 85.280678 
" clip-path="url(#p9684b61e42)" style="fill: none; stroke: #bdbdbd; stroke-width: 0.8; stroke-linecap: square"/>
   </g>
   <g id="line2d_24">
    <path d="M 707.9 85.280678 
L 707.9 112.370656 
" clip-path="url(#p9684b61e42)" style="fill: none; stroke: #bdbdbd; stroke-width: 0.8; stroke-linecap: square"/>
   </g>
   <g id="line2d_25">
    <path d="M 436.2 56.106856 
L 436.2 85.280678 
" clip-path="url(#p9684b61e42)" style="fill: none; stroke: #bdbdbd; stroke-width: 0.8; stroke-linecap: square"/>
   </g>
   <g id="line2d_26">
    <path d="M 436.2 85.280678 
L 793.7 85.280678 
" clip-path="url(#p9684b61e42)" style="fill: none; stroke: #bdbdbd; stroke-width: 0.8; stroke-linecap: square"/>
   </g>
   <g id="line2d_27">
    <path d="M 793.7 85.280678 
L 793.7 112.370656 
" clip-path="url(#p9684b61e42)" style="fill: none; stroke: #bdbdbd; stroke-width: 0.8; stroke-linecap: square"/>
   </g>
   <g id="line2d_28">
    <path d="M 336.1 139.460634 
L 336.1 168.634456 
" clip-path="url(#p9684b61e42)" style="fill: none; stroke: #bdbdbd; stroke-width: 0.8; stroke-linecap: square"/>
   </g>
   <g id="line2d_29">
    <path d="M 336.1 168.634456 
L 336.1 168.634456 
" clip-path="url(#p9684b61e42)" style="fill: none; stroke: #bdbdbd; stroke-width: 0.8; stroke-linecap: square"/>
   </g>
   <g id="line2d_30">
    <path d="M 336.1 168.634456 
L 336.1 195.724434 
" clip-path="url(#p9684b61e42)" style="fill: none; stroke: #bdbdbd; stroke-width: 0.8; stroke-linecap: square"/>
   </g>
   <g id="line2d_31">
    <path d="M 436.2 139.460634 
L 436.2 168.634456 
" clip-path="url(#p9684b61e42)" style="fill: none; stroke: #bdbdbd; stroke-width: 0.8; stroke-linecap: square"/>
   </g>
   <g id="line2d_32">
    <path d="M 436.2 168.634456 
L 393.3 168.634456 
" clip-path="url(#p9684b61e42)" style="fill: none; stroke: #bdbdbd; stroke-width: 0.8; stroke-linecap: square"/>
   </g>
   <g id="line2d_33">
    <path d="M 393.3 168.634456 
L 393.3 195.724434 
" clip-path="url(#p9684b61e42)" style="fill: none; stroke: #bdbdbd; stroke-width: 0.8; stroke-linecap: square"/>
   </g>
   <g id="line2d_34">
    <path d="M 436.2 139.460634 
L 436.2 168.634456 
" clip-path="url(#p9684b61e42)" style="fill: none; stroke: #bdbdbd; stroke-width: 0.8; stroke-linecap: square"/>
   </g>
   <g id="line2d_35">
    <path d="M 436.2 168.634456 
L 479.1 168.634456 
" clip-path="url(#p9684b61e42)" style="fill: none; stroke: #bdbdbd; stroke-width: 0.8; stroke-linecap: square"/>
   </g>
   <g id="line2d_36">
    <path d="M 479.1 168.634456 
L 479.1 195.724434 
" clip-path="url(#p9684b61e42)" style="fill: none; stroke: #bdbdbd; stroke-width: 0.8; stroke-linecap: square"/>
   </g>
   <g id="line2d_37">
    <path d="M 536.3 139.460634 
L 536.3 168.634456 
" clip-path="url(#p9684b61e42)" style="fill: none; stroke: #bdbdbd; stroke-width: 0.8; stroke-linecap: square"/>
   </g>
   <g id="line2d_38">
    <path d="M 536.3 168.634456 
L 536.3 168.634456 
" clip-path="url(#p9684b61e42)" style="fill: none; stroke: #bdbdbd; stroke-width: 0.8; stroke-linecap: square"/>
   </g>
   <g id="line2d_39">
    <path d="M 536.3 168.634456 
L 536.3 195.724434 
" clip-path="url(#p9684b61e42)" style="fill: none; stroke: #bdbdbd; stroke-width: 0.8; stroke-linecap: square"/>
   </g>
   <g id="line2d_40">
    <path d="M 707.9 139.460634 
L 707.9 168.634456 
" clip-path="url(#p9684b61e42)" style="fill: none; stroke: #bdbdbd; stroke-width: 0.8; stroke-linecap: square"/>
   </g>
   <g id="line2d_41">
    <path d="M 707.9 168.634456 
L 665 168.634456 
" clip-path="url(#p9684b61e42)" style="fill: none; stroke: #bdbdbd; stroke-width: 0.8; stroke-linecap: square"/>
   </g>
   <g id="line2d_42">
    <path d="M 665 168.634456 
L 665 195.724434 
" clip-path="url(#p9684b61e42)" style="fill: none; stroke: #bdbdbd; stroke-width: 0.8; stroke-linecap: square"/>
   </g>
   <g id="line2d_43">
    <path d="M 707.9 139.460634 
L 707.9 168.634456 
" clip-path="url(#p9684b61e42)" style="fill: none; stroke: #bdbdbd; stroke-width: 0.8; stroke-linecap: square"/>
   </g>
   <g id="line2d_44">
    <path d="M 707.9 168.634456 
L 750.8 168.634456 
" clip-path="url(#p9684b61e42)" style="fill: none; stroke: #bdbdbd; stroke-width: 0.8; stroke-linecap: square"/>
   </g>
   <g id="line2d_45">
    <path d="M 750.8 168.634456 
L 750.8 195.724434 
" clip-path="url(#p9684b61e42)" style="fill: none; stroke: #bdbdbd; stroke-width: 0.8; stroke-linecap: square"/>
   </g>
   <g id="line2d_46">
    <path d="M 793.7 139.460634 
L 793.7 168.634456 
" clip-path="url(#p9684b61e42)" style="fill: none; stroke: #bdbdbd; stroke-width: 0.8; stroke-linecap: square"/>
   </g>
   <g id="line2d_47">
    <path d="M 793.7 168.634456 
L 793.7 168.634456 
" clip-path="url(#p9684b61e42)" style="fill: none; stroke: #bdbdbd; stroke-width: 0.8; stroke-linecap: square"/>
   </g>
   <g id="line2d_48">
    <path d="M 793.7 168.634456 
L 793.7 195.724434 
" clip-path="url(#p9684b61e42)" style="fill: none; stroke: #bdbdbd; stroke-width: 0.8; stroke-linecap: square"/>
   </g>
   <g id="text_1">
    <g id="patch_5">
     <path d="M 433.460156 56.112383 
L 438.939844 56.112383 
Q 444.189844 56.112383 444.189844 50.862383 
L 444.189844 36.345196 
Q 444.189844 31.095196 438.939844 31.095196 
L 433.460156 31.095196 
Q 428.210156 31.095196 428.210156 36.345196 
L 428.210156 50.862383 
Q 428.210156 56.112383 433.460156 56.112383 
z
" style="fill: #1565c0; stroke: #1565c0; stroke-width: 1.5; stroke-linejoin: miter"/>
    </g>
    <!-- / -->
    <g style="fill: #ffffff" transform="translate(433.460156 47.742852) scale(0.15 -0.15)">
     <defs>
      <path id="DejaVuSans-Bold-2f" d="M 1644 4666 
L 2338 4666 
L 691 -594 
L 0 -594 
L 1644 4666 
z
" transform="scale(0.015625)"/>
     </defs>
     <use xlink:href="#DejaVuSans-Bold-2f"/>
    </g>
   </g>
   <g id="text_2">
    <g id="patch_6">
     <path d="M 67.191953 137.798349 
L 90.208047 137.798349 
Q 94.758047 137.798349 94.758047 133.248349 
L 94.758047 120.666786 
Q 94.758047 116.116786 90.208047 116.116786 
L 67.191953 116.116786 
Q 62.641953 116.116786 62.641953 120.666786 
L 62.641953 133.248349 
Q 62.641953 137.798349 67.191953 137.798349 
z
" style="fill: #e3f2fd; stroke: #90caf9; stroke-linejoin: miter"/>
    </g>
    <!-- bin -->
    <g style="fill: #333333" transform="translate(67.191953 130.544755) scale(0.13 -0.13)">
     <defs>
      <path id="DejaVuSans-Bold-62" d="M 2400 722 
Q 2759 722 2948 984 
Q 3138 1247 3138 1747 
Q 3138 2247 2948 2509 
Q 2759 2772 2400 2772 
Q 2041 2772 1848 2508 
Q 1656 2244 1656 1747 
Q 1656 1250 1848 986 
Q 2041 722 2400 722 
z
M 1656 2988 
Q 1888 3294 2169 3439 
Q 2450 3584 2816 3584 
Q 3463 3584 3878 3070 
Q 4294 2556 4294 1747 
Q 4294 938 3878 423 
Q 3463 -91 2816 -91 
Q 2450 -91 2169 54 
Q 1888 200 1656 506 
L 1656 0 
L 538 0 
L 538 4863 
L 1656 4863 
L 1656 2988 
z
" transform="scale(0.015625)"/>
      <path id="DejaVuSans-Bold-69" d="M 538 3500 
L 1656 3500 
L 1656 0 
L 538 0 
L 538 3500 
z
M 538 4863 
L 1656 4863 
L 1656 3950 
L 538 3950 
L 538 4863 
z
" transform="scale(0.015625)"/>
      <path id="DejaVuSans-Bold-6e" d="M 4056 2131 
L 4056 0 
L 2931 0 
L 2931 347 
L 2931 1631 
Q 2931 2084 2911 2256 
Q 2891 2428 2841 2509 
Q 2775 2619 2662 2680 
Q 2550 2741 2406 2741 
Q 2056 2741 1856 2470 
Q 1656 2200 1656 1722 
L 1656 0 
L 538 0 
L 538 3500 
L 1656 3500 
L 1656 2988 
Q 1909 3294 2193 3439 
Q 2478 3584 2822 3584 
Q 3428 3584 3742 3212 
Q 4056 2841 4056 2131 
z
" transform="scale(0.015625)"/>
     </defs>
     <use xlink:href="#DejaVuSans-Bold-62"/>
     <use xlink:href="#DejaVuSans-Bold-69" transform="translate(71.582031 0)"/>
     <use xlink:href="#DejaVuSans-Bold-6e" transform="translate(105.859375 0)"/>
    </g>
   </g>
   <g id="text_3">
    <g id="patch_7">
     <path d="M 147.809219 137.798349 
L 181.190781 137.798349 
Q 185.740781 137.798349 185.740781 133.248349 
L 185.740781 120.666786 
Q 185.740781 116.116786 181.190781 116.116786 
L 147.809219 116.116786 
Q 143.259219 116.116786 143.259219 120.666786 
L 143.259219 133.248349 
Q 143.259219 137.798349 147.809219 137.798349 
z
" style="fill: #e3f2fd; stroke: #90caf9; stroke-linejoin: miter"/>
    </g>
    <!-- boot -->
    <g style="fill: #333333" transform="translate(147.809219 130.544755) scale(0.13 -0.13)">
     <defs>
      <path id="DejaVuSans-Bold-6f" d="M 2203 2784 
Q 1831 2784 1636 2517 
Q 1441 2250 1441 1747 
Q 1441 1244 1636 976 
Q 1831 709 2203 709 
Q 2569 709 2762 976 
Q 2956 1244 2956 1747 
Q 2956 2250 2762 2517 
Q 2569 2784 2203 2784 
z
M 2203 3584 
Q 3106 3584 3614 3096 
Q 4122 2609 4122 1747 
Q 4122 884 3614 396 
Q 3106 -91 2203 -91 
Q 1297 -91 786 396 
Q 275 884 275 1747 
Q 275 2609 786 3096 
Q 1297 3584 2203 3584 
z
" transform="scale(0.015625)"/>
      <path id="DejaVuSans-Bold-74" d="M 1759 4494 
L 1759 3500 
L 2913 3500 
L 2913 2700 
L 1759 2700 
L 1759 1216 
Q 1759 972 1856 886 
Q 1953 800 2241 800 
L 2816 800 
L 2816 0 
L 1856 0 
Q 1194 0 917 276 
Q 641 553 641 1216 
L 641 2700 
L 84 2700 
L 84 3500 
L 641 3500 
L 641 4494 
L 1759 4494 
z
" transform="scale(0.015625)"/>
     </defs>
     <use xlink:href="#DejaVuSans-Bold-62"/>
     <use xlink:href="#DejaVuSans-Bold-6f" transform="translate(71.582031 0)"/>
     <use xlink:href="#DejaVuSans-Bold-6f" transform="translate(140.283203 0)"/>
     <use xlink:href="#DejaVuSans-Bold-74" transform="translate(208.984375 0)"/>
    </g>
   </g>
   <g id="text_4">
    <g id="patch_8">
     <path d="M 237.001406 137.798349 
L 263.598594 137.798349 
Q 268.148594 137.798349 268.148594 133.248349 
L 268.148594 120.666786 
Q 268.148594 116.116786 263.598594 116.116786 
L 237.001406 116.116786 
Q 232.451406 116.116786 232.451406 120.666786 
L 232.451406 133.248349 
Q 232.451406 137.798349 237.001406 137.798349 
z
" style="fill: #e3f2fd; stroke: #90caf9; stroke-linejoin: miter"/>
    </g>
    <!-- dev -->
    <g style="fill: #333333" transform="translate(237.001406 130.544755) scale(0.13 -0.13)">
     <defs>
      <path id="DejaVuSans-Bold-64" d="M 2919 2988 
L 2919 4863 
L 4044 4863 
L 4044 0 
L 2919 0 
L 2919 506 
Q 2688 197 2409 53 
Q 2131 -91 1766 -91 
Q 1119 -91 703 423 
Q 288 938 288 1747 
Q 288 2556 703 3070 
Q 1119 3584 1766 3584 
Q 2128 3584 2408 3439 
Q 2688 3294 2919 2988 
z
M 2181 722 
Q 2541 722 2730 984 
Q 2919 1247 2919 1747 
Q 2919 2247 2730 2509 
Q 2541 2772 2181 2772 
Q 1825 2772 1636 2509 
Q 1447 2247 1447 1747 
Q 1447 1247 1636 984 
Q 1825 722 2181 722 
z
" transform="scale(0.015625)"/>
      <path id="DejaVuSans-Bold-65" d="M 4031 1759 
L 4031 1441 
L 1416 1441 
Q 1456 1047 1700 850 
Q 1944 653 2381 653 
Q 2734 653 3104 758 
Q 3475 863 3866 1075 
L 3866 213 
Q 3469 63 3072 -14 
Q 2675 -91 2278 -91 
Q 1328 -91 801 392 
Q 275 875 275 1747 
Q 275 2603 792 3093 
Q 1309 3584 2216 3584 
Q 3041 3584 3536 3087 
Q 4031 2591 4031 1759 
z
M 2881 2131 
Q 2881 2450 2695 2645 
Q 2509 2841 2209 2841 
Q 1884 2841 1681 2658 
Q 1478 2475 1428 2131 
L 2881 2131 
z
" transform="scale(0.015625)"/>
      <path id="DejaVuSans-Bold-76" d="M 97 3500 
L 1216 3500 
L 2088 1081 
L 2956 3500 
L 4078 3500 
L 2700 0 
L 1472 0 
L 97 3500 
z
" transform="scale(0.015625)"/>
     </defs>
     <use xlink:href="#DejaVuSans-Bold-64"/>
     <use xlink:href="#DejaVuSans-Bold-65" transform="translate(71.582031 0)"/>
     <use xlink:href="#DejaVuSans-Bold-76" transform="translate(139.404297 0)"/>
    </g>
   </g>
   <g id="text_5">
    <g id="patch_9">
     <path d="M 324.731094 137.798349 
L 347.468906 137.798349 
Q 352.018906 137.798349 352.018906 133.248349 
L 352.018906 120.666786 
Q 352.018906 116.116786 347.468906 116.116786 
L 324.731094 116.116786 
Q 320.181094 116.116786 320.181094 120.666786 
L 320.181094 133.248349 
Q 320.181094 137.798349 324.731094 137.798349 
z
" style="fill: #e3f2fd; stroke: #90caf9; stroke-linejoin: miter"/>
    </g>
    <!-- etc -->
    <g style="fill: #333333" transform="translate(324.731094 130.544755) scale(0.13 -0.13)">
     <defs>
      <path id="DejaVuSans-Bold-63" d="M 3366 3391 
L 3366 2478 
Q 3138 2634 2908 2709 
Q 2678 2784 2431 2784 
Q 1963 2784 1702 2511 
Q 1441 2238 1441 1747 
Q 1441 1256 1702 982 
Q 1963 709 2431 709 
Q 2694 709 2930 787 
Q 3166 866 3366 1019 
L 3366 103 
Q 3103 6 2833 -42 
Q 2563 -91 2291 -91 
Q 1344 -91 809 395 
Q 275 881 275 1747 
Q 275 2613 809 3098 
Q 1344 3584 2291 3584 
Q 2566 3584 2833 3536 
Q 3100 3488 3366 3391 
z
" transform="scale(0.015625)"/>
     </defs>
     <use xlink:href="#DejaVuSans-Bold-65"/>
     <use xlink:href="#DejaVuSans-Bold-74" transform="translate(67.822266 0)"/>
     <use xlink:href="#DejaVuSans-Bold-63" transform="translate(115.625 0)"/>
    </g>
   </g>
   <g id="text_6">
    <g id="patch_10">
     <path d="M 415.925078 137.798349 
L 456.474922 137.798349 
Q 461.024922 137.798349 461.024922 133.248349 
L 461.024922 120.666786 
Q 461.024922 116.116786 456.474922 116.116786 
L 415.925078 116.116786 
Q 411.375078 116.116786 411.375078 120.666786 
L 411.375078 133.248349 
Q 411.375078 137.798349 415.925078 137.798349 
z
" style="fill: #fff3e0; stroke: #ffb74d; stroke-linejoin: miter"/>
    </g>
    <!-- home -->
    <g style="fill: #e65100" transform="translate(415.925078 130.544755) scale(0.13 -0.13)">
     <defs>
      <path id="DejaVuSans-Bold-68" d="M 4056 2131 
L 4056 0 
L 2931 0 
L 2931 347 
L 2931 1625 
Q 2931 2084 2911 2256 
Q 2891 2428 2841 2509 
Q 2775 2619 2662 2680 
Q 2550 2741 2406 2741 
Q 2056 2741 1856 2470 
Q 1656 2200 1656 1722 
L 1656 0 
L 538 0 
L 538 4863 
L 1656 4863 
L 1656 2988 
Q 1909 3294 2193 3439 
Q 2478 3584 2822 3584 
Q 3428 3584 3742 3212 
Q 4056 2841 4056 2131 
z
" transform="scale(0.015625)"/>
      <path id="DejaVuSans-Bold-6d" d="M 3781 2919 
Q 3994 3244 4286 3414 
Q 4578 3584 4928 3584 
Q 5531 3584 5847 3212 
Q 6163 2841 6163 2131 
L 6163 0 
L 5038 0 
L 5038 1825 
Q 5041 1866 5042 1909 
Q 5044 1953 5044 2034 
Q 5044 2406 4934 2573 
Q 4825 2741 4581 2741 
Q 4263 2741 4089 2478 
Q 3916 2216 3909 1719 
L 3909 0 
L 2784 0 
L 2784 1825 
Q 2784 2406 2684 2573 
Q 2584 2741 2328 2741 
Q 2006 2741 1831 2477 
Q 1656 2213 1656 1722 
L 1656 0 
L 531 0 
L 531 3500 
L 1656 3500 
L 1656 2988 
Q 1863 3284 2130 3434 
Q 2397 3584 2719 3584 
Q 3081 3584 3359 3409 
Q 3638 3234 3781 2919 
z
" transform="scale(0.015625)"/>
     </defs>
     <use xlink:href="#DejaVuSans-Bold-68"/>
     <use xlink:href="#DejaVuSans-Bold-6f" transform="translate(71.191406 0)"/>
     <use xlink:href="#DejaVuSans-Bold-6d" transform="translate(139.892578 0)"/>
     <use xlink:href="#DejaVuSans-Bold-65" transform="translate(244.091797 0)"/>
    </g>
   </g>
   <g id="text_7">
    <g id="patch_11">
     <path d="M 524.074922 137.798349 
L 548.525078 137.798349 
Q 553.075078 137.798349 553.075078 133.248349 
L 553.075078 120.666786 
Q 553.075078 116.116786 548.525078 116.116786 
L 524.074922 116.116786 
Q 519.524922 116.116786 519.524922 120.666786 
L 519.524922 133.248349 
Q 519.524922 137.798349 524.074922 137.798349 
z
" style="fill: #fff3e0; stroke: #ffb74d; stroke-linejoin: miter"/>
    </g>
    <!-- opt -->
    <g style="fill: #e65100" transform="translate(524.074922 130.544755) scale(0.13 -0.13)">
     <defs>
      <path id="DejaVuSans-Bold-70" d="M 1656 506 
L 1656 -1331 
L 538 -1331 
L 538 3500 
L 1656 3500 
L 1656 2988 
Q 1888 3294 2169 3439 
Q 2450 3584 2816 3584 
Q 3463 3584 3878 3070 
Q 4294 2556 4294 1747 
Q 4294 938 3878 423 
Q 3463 -91 2816 -91 
Q 2450 -91 2169 54 
Q 1888 200 1656 506 
z
M 2400 2772 
Q 2041 2772 1848 2508 
Q 1656 2244 1656 1747 
Q 1656 1250 1848 986 
Q 2041 722 2400 722 
Q 2759 722 2948 984 
Q 3138 1247 3138 1747 
Q 3138 2247 2948 2509 
Q 2759 2772 2400 2772 
z
" transform="scale(0.015625)"/>
     </defs>
     <use xlink:href="#DejaVuSans-Bold-6f"/>
     <use xlink:href="#DejaVuSans-Bold-70" transform="translate(68.701172 0)"/>
     <use xlink:href="#DejaVuSans-Bold-74" transform="translate(140.283203 0)"/>
    </g>
   </g>
   <g id="text_8">
    <g id="patch_12">
     <path d="M 607.567422 137.798349 
L 636.632578 137.798349 
Q 641.182578 137.798349 641.182578 133.248349 
L 641.182578 120.666786 
Q 641.182578 116.116786 636.632578 116.116786 
L 607.567422 116.116786 
Q 603.017422 116.116786 603.017422 120.666786 
L 603.017422 133.248349 
Q 603.017422 137.798349 607.567422 137.798349 
z
" style="fill: #e3f2fd; stroke: #90caf9; stroke-linejoin: miter"/>
    </g>
    <!-- tmp -->
    <g style="fill: #333333" transform="translate(607.567422 130.544755) scale(0.13 -0.13)">
     <use xlink:href="#DejaVuSans-Bold-74"/>
     <use xlink:href="#DejaVuSans-Bold-6d" transform="translate(47.802734 0)"/>
     <use xlink:href="#DejaVuSans-Bold-70" transform="translate(152.001953 0)"/>
    </g>
   </g>
   <g id="text_9">
    <g id="patch_13">
     <path d="M 696.198984 137.798349 
L 719.601016 137.798349 
Q 724.151016 137.798349 724.151016 133.248349 
L 724.151016 120.666786 
Q 724.151016 116.116786 719.601016 116.116786 
L 696.198984 116.116786 
Q 691.648984 116.116786 691.648984 120.666786 
L 691.648984 133.248349 
Q 691.648984 137.798349 696.198984 137.798349 
z
" style="fill: #e3f2fd; stroke: #90caf9; stroke-linejoin: miter"/>
    </g>
    <!-- usr -->
    <g style="fill: #333333" transform="translate(696.198984 130.544755) scale(0.13 -0.13)">
     <defs>
      <path id="DejaVuSans-Bold-75" d="M 500 1363 
L 500 3500 
L 1625 3500 
L 1625 3150 
Q 1625 2866 1622 2436 
Q 1619 2006 1619 1863 
Q 1619 1441 1641 1255 
Q 1663 1069 1716 984 
Q 1784 875 1895 815 
Q 2006 756 2150 756 
Q 2500 756 2700 1025 
Q 2900 1294 2900 1772 
L 2900 3500 
L 4019 3500 
L 4019 0 
L 2900 0 
L 2900 506 
Q 2647 200 2364 54 
Q 2081 -91 1741 -91 
Q 1134 -91 817 281 
Q 500 653 500 1363 
z
" transform="scale(0.015625)"/>
      <path id="DejaVuSans-Bold-73" d="M 3272 3391 
L 3272 2541 
Q 2913 2691 2578 2766 
Q 2244 2841 1947 2841 
Q 1628 2841 1473 2761 
Q 1319 2681 1319 2516 
Q 1319 2381 1436 2309 
Q 1553 2238 1856 2203 
L 2053 2175 
Q 2913 2066 3209 1816 
Q 3506 1566 3506 1031 
Q 3506 472 3093 190 
Q 2681 -91 1863 -91 
Q 1516 -91 1145 -36 
Q 775 19 384 128 
L 384 978 
Q 719 816 1070 734 
Q 1422 653 1784 653 
Q 2113 653 2278 743 
Q 2444 834 2444 1013 
Q 2444 1163 2330 1236 
Q 2216 1309 1875 1350 
L 1678 1375 
Q 931 1469 631 1722 
Q 331 1975 331 2491 
Q 331 3047 712 3315 
Q 1094 3584 1881 3584 
Q 2191 3584 2531 3537 
Q 2872 3491 3272 3391 
z
" transform="scale(0.015625)"/>
      <path id="DejaVuSans-Bold-72" d="M 3138 2547 
Q 2991 2616 2845 2648 
Q 2700 2681 2553 2681 
Q 2122 2681 1889 2404 
Q 1656 2128 1656 1613 
L 1656 0 
L 538 0 
L 538 3500 
L 1656 3500 
L 1656 2925 
Q 1872 3269 2151 3426 
Q 2431 3584 2822 3584 
Q 2878 3584 2943 3579 
Q 3009 3575 3134 3559 
L 3138 2547 
z
" transform="scale(0.015625)"/>
     </defs>
     <use xlink:href="#DejaVuSans-Bold-75"/>
     <use xlink:href="#DejaVuSans-Bold-73" transform="translate(71.191406 0)"/>
     <use xlink:href="#DejaVuSans-Bold-72" transform="translate(130.712891 0)"/>
    </g>
   </g>
   <g id="text_10">
    <g id="patch_14">
     <path d="M 781.871016 137.798349 
L 805.528984 137.798349 
Q 810.078984 137.798349 810.078984 133.248349 
L 810.078984 120.666786 
Q 810.078984 116.116786 805.528984 116.116786 
L 781.871016 116.116786 
Q 777.321016 116.116786 777.321016 120.666786 
L 777.321016 133.248349 
Q 777.321016 137.798349 781.871016 137.798349 
z
" style="fill: #e3f2fd; stroke: #90caf9; stroke-linejoin: miter"/>
    </g>
    <!-- var -->
    <g style="fill: #333333" transform="translate(781.871016 130.544755) scale(0.13 -0.13)">
     <defs>
      <path id="DejaVuSans-Bold-61" d="M 2106 1575 
Q 1756 1575 1579 1456 
Q 1403 1338 1403 1106 
Q 1403 894 1545 773 
Q 1688 653 1941 653 
Q 2256 653 2472 879 
Q 2688 1106 2688 1447 
L 2688 1575 
L 2106 1575 
z
M 3816 1997 
L 3816 0 
L 2688 0 
L 2688 519 
Q 2463 200 2181 54 
Q 1900 -91 1497 -91 
Q 953 -91 614 226 
Q 275 544 275 1050 
Q 275 1666 698 1953 
Q 1122 2241 2028 2241 
L 2688 2241 
L 2688 2328 
Q 2688 2594 2478 2717 
Q 2269 2841 1825 2841 
Q 1466 2841 1156 2769 
Q 847 2697 581 2553 
L 581 3406 
Q 941 3494 1303 3539 
Q 1666 3584 2028 3584 
Q 2975 3584 3395 3211 
Q 3816 2838 3816 1997 
z
" transform="scale(0.015625)"/>
     </defs>
     <use xlink:href="#DejaVuSans-Bold-76"/>
     <use xlink:href="#DejaVuSans-Bold-61" transform="translate(65.185547 0)"/>
     <use xlink:href="#DejaVuSans-Bold-72" transform="translate(132.666016 0)"/>
    </g>
   </g>
   <g id="text_11">
    <g id="patch_15">
     <path d="M 322.280391 219.484314 
L 349.919609 219.484314 
Q 353.769609 219.484314 353.769609 215.634314 
L 353.769609 204.988376 
Q 353.769609 201.138376 349.919609 201.138376 
L 322.280391 201.138376 
Q 318.430391 201.138376 318.430391 204.988376 
L 318.430391 215.634314 
Q 318.430391 219.484314 322.280391 219.484314 
z
" style="fill: #f3e5f5; stroke-dasharray: 3.7,1.6; stroke-dashoffset: 0; stroke: #ce93d8; stroke-linejoin: miter"/>
    </g>
    <!-- fstab -->
    <g style="fill: #6a1b9a" transform="translate(322.280391 213.346658) scale(0.11 -0.11)">
     <defs>
      <path id="DejaVuSans-66" d="M 2375 4863 
L 2375 4384 
L 1825 4384 
Q 1516 4384 1395 4259 
Q 1275 4134 1275 3809 
L 1275 3500 
L 2222 3500 
L 2222 3053 
L 1275 3053 
L 1275 0 
L 697 0 
L 697 3053 
L 147 3053 
L 147 3500 
L 697 3500 
L 697 3744 
Q 697 4328 969 4595 
Q 1241 4863 1831 4863 
L 2375 4863 
z
" transform="scale(0.015625)"/>
      <path id="DejaVuSans-73" d="M 2834 3397 
L 2834 2853 
Q 2591 2978 2328 3040 
Q 2066 3103 1784 3103 
Q 1356 3103 1142 2972 
Q 928 2841 928 2578 
Q 928 2378 1081 2264 
Q 1234 2150 1697 2047 
L 1894 2003 
Q 2506 1872 2764 1633 
Q 3022 1394 3022 966 
Q 3022 478 2636 193 
Q 2250 -91 1575 -91 
Q 1294 -91 989 -36 
Q 684 19 347 128 
L 347 722 
Q 666 556 975 473 
Q 1284 391 1588 391 
Q 1994 391 2212 530 
Q 2431 669 2431 922 
Q 2431 1156 2273 1281 
Q 2116 1406 1581 1522 
L 1381 1569 
Q 847 1681 609 1914 
Q 372 2147 372 2553 
Q 372 3047 722 3315 
Q 1072 3584 1716 3584 
Q 2034 3584 2315 3537 
Q 2597 3491 2834 3397 
z
" transform="scale(0.015625)"/>
      <path id="DejaVuSans-74" d="M 1172 4494 
L 1172 3500 
L 2356 3500 
L 2356 3053 
L 1172 3053 
L 1172 1153 
Q 1172 725 1289 603 
Q 1406 481 1766 481 
L 2356 481 
L 2356 0 
L 1766 0 
Q 1100 0 847 248 
Q 594 497 594 1153 
L 594 3053 
L 172 3053 
L 172 3500 
L 594 3500 
L 594 4494 
L 1172 4494 
z
" transform="scale(0.015625)"/>
      <path id="DejaVuSans-61" d="M 2194 1759 
Q 1497 1759 1228 1600 
Q 959 1441 959 1056 
Q 959 750 1161 570 
Q 1363 391 1709 391 
Q 2188 391 2477 730 
Q 2766 1069 2766 1631 
L 2766 1759 
L 2194 1759 
z
M 3341 1997 
L 3341 0 
L 2766 0 
L 2766 531 
Q 2569 213 2275 61 
Q 1981 -91 1556 -91 
Q 1019 -91 701 211 
Q 384 513 384 1019 
Q 384 1609 779 1909 
Q 1175 2209 1959 2209 
L 2766 2209 
L 2766 2266 
Q 2766 2663 2505 2880 
Q 2244 3097 1772 3097 
Q 1472 3097 1187 3025 
Q 903 2953 641 2809 
L 641 3341 
Q 956 3463 1253 3523 
Q 1550 3584 1831 3584 
Q 2591 3584 2966 3190 
Q 3341 2797 3341 1997 
z
" transform="scale(0.015625)"/>
      <path id="DejaVuSans-62" d="M 3116 1747 
Q 3116 2381 2855 2742 
Q 2594 3103 2138 3103 
Q 1681 3103 1420 2742 
Q 1159 2381 1159 1747 
Q 1159 1113 1420 752 
Q 1681 391 2138 391 
Q 2594 391 2855 752 
Q 3116 1113 3116 1747 
z
M 1159 2969 
Q 1341 3281 1617 3432 
Q 1894 3584 2278 3584 
Q 2916 3584 3314 3078 
Q 3713 2572 3713 1747 
Q 3713 922 3314 415 
Q 2916 -91 2278 -91 
Q 1894 -91 1617 61 
Q 1341 213 1159 525 
L 1159 0 
L 581 0 
L 581 4863 
L 1159 4863 
L 1159 2969 
z
" transform="scale(0.015625)"/>
     </defs>
     <use xlink:href="#DejaVuSans-66"/>
     <use xlink:href="#DejaVuSans-73" transform="translate(35.205078 0)"/>
     <use xlink:href="#DejaVuSans-74" transform="translate(87.304688 0)"/>
     <use xlink:href="#DejaVuSans-61" transform="translate(126.513672 0)"/>
     <use xlink:href="#DejaVuSans-62" transform="translate(187.792969 0)"/>
    </g>
   </g>
   <g id="text_12">
    <g id="patch_16">
     <path d="M 381.303984 219.484314 
L 405.296016 219.484314 
Q 409.146016 219.484314 409.146016 215.634314 
L 409.146016 204.988376 
Q 409.146016 201.138376 405.296016 201.138376 
L 381.303984 201.138376 
Q 377.453984 201.138376 377.453984 204.988376 
L 377.453984 215.634314 
Q 377.453984 219.484314 381.303984 219.484314 
z
" style="fill: #fff3e0; stroke: #ffb74d; stroke-linejoin: miter"/>
    </g>
    <!-- user -->
    <g style="fill: #e65100" transform="translate(381.303984 213.346658) scale(0.11 -0.11)">
     <defs>
      <path id="DejaVuSans-75" d="M 544 1381 
L 544 3500 
L 1119 3500 
L 1119 1403 
Q 1119 906 1312 657 
Q 1506 409 1894 409 
Q 2359 409 2629 706 
Q 2900 1003 2900 1516 
L 2900 3500 
L 3475 3500 
L 3475 0 
L 2900 0 
L 2900 538 
Q 2691 219 2414 64 
Q 2138 -91 1772 -91 
Q 1169 -91 856 284 
Q 544 659 544 1381 
z
M 1991 3584 
L 1991 3584 
z
" transform="scale(0.015625)"/>
      <path id="DejaVuSans-65" d="M 3597 1894 
L 3597 1613 
L 953 1613 
Q 991 1019 1311 708 
Q 1631 397 2203 397 
Q 2534 397 2845 478 
Q 3156 559 3463 722 
L 3463 178 
Q 3153 47 2828 -22 
Q 2503 -91 2169 -91 
Q 1331 -91 842 396 
Q 353 884 353 1716 
Q 353 2575 817 3079 
Q 1281 3584 2069 3584 
Q 2775 3584 3186 3129 
Q 3597 2675 3597 1894 
z
M 3022 2063 
Q 3016 2534 2758 2815 
Q 2500 3097 2075 3097 
Q 1594 3097 1305 2825 
Q 1016 2553 972 2059 
L 3022 2063 
z
" transform="scale(0.015625)"/>
      <path id="DejaVuSans-72" d="M 2631 2963 
Q 2534 3019 2420 3045 
Q 2306 3072 2169 3072 
Q 1681 3072 1420 2755 
Q 1159 2438 1159 1844 
L 1159 0 
L 581 0 
L 581 3500 
L 1159 3500 
L 1159 2956 
Q 1341 3275 1631 3429 
Q 1922 3584 2338 3584 
Q 2397 3584 2469 3576 
Q 2541 3569 2628 3553 
L 2631 2963 
z
" transform="scale(0.015625)"/>
     </defs>
     <use xlink:href="#DejaVuSans-75"/>
     <use xlink:href="#DejaVuSans-73" transform="translate(63.378906 0)"/>
     <use xlink:href="#DejaVuSans-65" transform="translate(115.478516 0)"/>
     <use xlink:href="#DejaVuSans-72" transform="translate(177.001953 0)"/>
    </g>
   </g>
   <g id="text_13">
    <g id="patch_17">
     <path d="M 460.013281 219.484314 
L 498.186719 219.484314 
Q 502.036719 219.484314 502.036719 215.634314 
L 502.036719 204.988376 
Q 502.036719 201.138376 498.186719 201.138376 
L 460.013281 201.138376 
Q 456.163281 201.138376 456.163281 204.988376 
L 456.163281 215.634314 
Q 456.163281 219.484314 460.013281 219.484314 
z
" style="fill: #fff3e0; stroke: #ffb74d; stroke-linejoin: miter"/>
    </g>
    <!-- project -->
    <g style="fill: #e65100" transform="translate(460.013281 213.346658) scale(0.11 -0.11)">
     <defs>
      <path id="DejaVuSans-70" d="M 1159 525 
L 1159 -1331 
L 581 -1331 
L 581 3500 
L 1159 3500 
L 1159 2969 
Q 1341 3281 1617 3432 
Q 1894 3584 2278 3584 
Q 2916 3584 3314 3078 
Q 3713 2572 3713 1747 
Q 3713 922 3314 415 
Q 2916 -91 2278 -91 
Q 1894 -91 1617 61 
Q 1341 213 1159 525 
z
M 3116 1747 
Q 3116 2381 2855 2742 
Q 2594 3103 2138 3103 
Q 1681 3103 1420 2742 
Q 1159 2381 1159 1747 
Q 1159 1113 1420 752 
Q 1681 391 2138 391 
Q 2594 391 2855 752 
Q 3116 1113 3116 1747 
z
" transform="scale(0.015625)"/>
      <path id="DejaVuSans-6f" d="M 1959 3097 
Q 1497 3097 1228 2736 
Q 959 2375 959 1747 
Q 959 1119 1226 758 
Q 1494 397 1959 397 
Q 2419 397 2687 759 
Q 2956 1122 2956 1747 
Q 2956 2369 2687 2733 
Q 2419 3097 1959 3097 
z
M 1959 3584 
Q 2709 3584 3137 3096 
Q 3566 2609 3566 1747 
Q 3566 888 3137 398 
Q 2709 -91 1959 -91 
Q 1206 -91 779 398 
Q 353 888 353 1747 
Q 353 2609 779 3096 
Q 1206 3584 1959 3584 
z
" transform="scale(0.015625)"/>
      <path id="DejaVuSans-6a" d="M 603 3500 
L 1178 3500 
L 1178 -63 
Q 1178 -731 923 -1031 
Q 669 -1331 103 -1331 
L -116 -1331 
L -116 -844 
L 38 -844 
Q 366 -844 484 -692 
Q 603 -541 603 -63 
L 603 3500 
z
M 603 4863 
L 1178 4863 
L 1178 4134 
L 603 4134 
L 603 4863 
z
" transform="scale(0.015625)"/>
      <path id="DejaVuSans-63" d="M 3122 3366 
L 3122 2828 
Q 2878 2963 2633 3030 
Q 2388 3097 2138 3097 
Q 1578 3097 1268 2742 
Q 959 2388 959 1747 
Q 959 1106 1268 751 
Q 1578 397 2138 397 
Q 2388 397 2633 464 
Q 2878 531 3122 666 
L 3122 134 
Q 2881 22 2623 -34 
Q 2366 -91 2075 -91 
Q 1284 -91 818 406 
Q 353 903 353 1747 
Q 353 2603 823 3093 
Q 1294 3584 2113 3584 
Q 2378 3584 2631 3529 
Q 2884 3475 3122 3366 
z
" transform="scale(0.015625)"/>
     </defs>
     <use xlink:href="#DejaVuSans-70"/>
     <use xlink:href="#DejaVuSans-72" transform="translate(63.476562 0)"/>
     <use xlink:href="#DejaVuSans-6f" transform="translate(102.339844 0)"/>
     <use xlink:href="#DejaVuSans-6a" transform="translate(163.521484 0)"/>
     <use xlink:href="#DejaVuSans-65" transform="translate(191.304688 0)"/>
     <use xlink:href="#DejaVuSans-63" transform="translate(252.828125 0)"/>
     <use xlink:href="#DejaVuSans-74" transform="translate(307.808594 0)"/>
    </g>
   </g>
   <g id="text_14">
    <g id="patch_18">
     <path d="M 507.663906 219.484314 
L 564.936094 219.484314 
Q 568.786094 219.484314 568.786094 215.634314 
L 568.786094 204.988376 
Q 568.786094 201.138376 564.936094 201.138376 
L 507.663906 201.138376 
Q 503.813906 201.138376 503.813906 204.988376 
L 503.813906 215.634314 
Q 503.813906 219.484314 507.663906 219.484314 
z
" style="fill: #fff3e0; stroke: #ffb74d; stroke-linejoin: miter"/>
    </g>
    <!-- miniconda -->
    <g style="fill: #e65100" transform="translate(507.663906 213.346658) scale(0.11 -0.11)">
     <defs>
      <path id="DejaVuSans-6d" d="M 3328 2828 
Q 3544 3216 3844 3400 
Q 4144 3584 4550 3584 
Q 5097 3584 5394 3201 
Q 5691 2819 5691 2113 
L 5691 0 
L 5113 0 
L 5113 2094 
Q 5113 2597 4934 2840 
Q 4756 3084 4391 3084 
Q 3944 3084 3684 2787 
Q 3425 2491 3425 1978 
L 3425 0 
L 2847 0 
L 2847 2094 
Q 2847 2600 2669 2842 
Q 2491 3084 2119 3084 
Q 1678 3084 1418 2786 
Q 1159 2488 1159 1978 
L 1159 0 
L 581 0 
L 581 3500 
L 1159 3500 
L 1159 2956 
Q 1356 3278 1631 3431 
Q 1906 3584 2284 3584 
Q 2666 3584 2933 3390 
Q 3200 3197 3328 2828 
z
" transform="scale(0.015625)"/>
      <path id="DejaVuSans-69" d="M 603 3500 
L 1178 3500 
L 1178 0 
L 603 0 
L 603 3500 
z
M 603 4863 
L 1178 4863 
L 1178 4134 
L 603 4134 
L 603 4863 
z
" transform="scale(0.015625)"/>
      <path id="DejaVuSans-6e" d="M 3513 2113 
L 3513 0 
L 2938 0 
L 2938 2094 
Q 2938 2591 2744 2837 
Q 2550 3084 2163 3084 
Q 1697 3084 1428 2787 
Q 1159 2491 1159 1978 
L 1159 0 
L 581 0 
L 581 3500 
L 1159 3500 
L 1159 2956 
Q 1366 3272 1645 3428 
Q 1925 3584 2291 3584 
Q 2894 3584 3203 3211 
Q 3513 2838 3513 2113 
z
" transform="scale(0.015625)"/>
      <path id="DejaVuSans-64" d="M 2906 2969 
L 2906 4863 
L 3481 4863 
L 3481 0 
L 2906 0 
L 2906 525 
Q 2725 213 2448 61 
Q 2172 -91 1784 -91 
Q 1150 -91 751 415 
Q 353 922 353 1747 
Q 353 2572 751 3078 
Q 1150 3584 1784 3584 
Q 2172 3584 2448 3432 
Q 2725 3281 2906 2969 
z
M 947 1747 
Q 947 1113 1208 752 
Q 1469 391 1925 391 
Q 2381 391 2643 752 
Q 2906 1113 2906 1747 
Q 2906 2381 2643 2742 
Q 2381 3103 1925 3103 
Q 1469 3103 1208 2742 
Q 947 2381 947 1747 
z
" transform="scale(0.015625)"/>
     </defs>
     <use xlink:href="#DejaVuSans-6d"/>
     <use xlink:href="#DejaVuSans-69" transform="translate(97.412109 0)"/>
     <use xlink:href="#DejaVuSans-6e" transform="translate(125.195312 0)"/>
     <use xlink:href="#DejaVuSans-69" transform="translate(188.574219 0)"/>
     <use xlink:href="#DejaVuSans-63" transform="translate(216.357422 0)"/>
     <use xlink:href="#DejaVuSans-6f" transform="translate(271.337891 0)"/>
     <use xlink:href="#DejaVuSans-6e" transform="translate(332.519531 0)"/>
     <use xlink:href="#DejaVuSans-64" transform="translate(395.898438 0)"/>
     <use xlink:href="#DejaVuSans-61" transform="translate(459.375 0)"/>
    </g>
   </g>
   <g id="text_15">
    <g id="patch_19">
     <path d="M 656.494766 219.484314 
L 673.505234 219.484314 
Q 677.355234 219.484314 677.355234 215.634314 
L 677.355234 204.988376 
Q 677.355234 201.138376 673.505234 201.138376 
L 656.494766 201.138376 
Q 652.644766 201.138376 652.644766 204.988376 
L 652.644766 215.634314 
Q 652.644766 219.484314 656.494766 219.484314 
z
" style="fill: #e3f2fd; stroke: #90caf9; stroke-linejoin: miter"/>
    </g>
    <!-- bin -->
    <g style="fill: #333333" transform="translate(656.494766 213.346658) scale(0.11 -0.11)">
     <use xlink:href="#DejaVuSans-62"/>
     <use xlink:href="#DejaVuSans-69" transform="translate(63.476562 0)"/>
     <use xlink:href="#DejaVuSans-6e" transform="translate(91.259766 0)"/>
    </g>
   </g>
   <g id="text_16">
    <g id="patch_20">
     <path d="M 737.984141 219.484314 
L 763.615859 219.484314 
Q 767.465859 219.484314 767.465859 215.634314 
L 767.465859 204.988376 
Q 767.465859 201.138376 763.615859 201.138376 
L 737.984141 201.138376 
Q 734.134141 201.138376 734.134141 204.988376 
L 734.134141 215.634314 
Q 734.134141 219.484314 737.984141 219.484314 
z
" style="fill: #e3f2fd; stroke: #90caf9; stroke-linejoin: miter"/>
    </g>
    <!-- local -->
    <g style="fill: #333333" transform="translate(737.984141 213.346658) scale(0.11 -0.11)">
     <defs>
      <path id="DejaVuSans-6c" d="M 603 4863 
L 1178 4863 
L 1178 0 
L 603 0 
L 603 4863 
z
" transform="scale(0.015625)"/>
     </defs>
     <use xlink:href="#DejaVuSans-6c"/>
     <use xlink:href="#DejaVuSans-6f" transform="translate(27.783203 0)"/>
     <use xlink:href="#DejaVuSans-63" transform="translate(88.964844 0)"/>
     <use xlink:href="#DejaVuSans-61" transform="translate(143.945312 0)"/>
     <use xlink:href="#DejaVuSans-6c" transform="translate(205.224609 0)"/>
    </g>
   </g>
   <g id="text_17">
    <g id="patch_21">
     <path d="M 785.315078 219.484314 
L 802.084922 219.484314 
Q 805.934922 219.484314 805.934922 215.634314 
L 805.934922 204.988376 
Q 805.934922 201.138376 802.084922 201.138376 
L 785.315078 201.138376 
Q 781.465078 201.138376 781.465078 204.988376 
L 781.465078 215.634314 
Q 781.465078 219.484314 785.315078 219.484314 
z
" style="fill: #e3f2fd; stroke: #90caf9; stroke-linejoin: miter"/>
    </g>
    <!-- log -->
    <g style="fill: #333333" transform="translate(785.315078 213.346658) scale(0.11 -0.11)">
     <defs>
      <path id="DejaVuSans-67" d="M 2906 1791 
Q 2906 2416 2648 2759 
Q 2391 3103 1925 3103 
Q 1463 3103 1205 2759 
Q 947 2416 947 1791 
Q 947 1169 1205 825 
Q 1463 481 1925 481 
Q 2391 481 2648 825 
Q 2906 1169 2906 1791 
z
M 3481 434 
Q 3481 -459 3084 -895 
Q 2688 -1331 1869 -1331 
Q 1566 -1331 1297 -1286 
Q 1028 -1241 775 -1147 
L 775 -588 
Q 1028 -725 1275 -790 
Q 1522 -856 1778 -856 
Q 2344 -856 2625 -561 
Q 2906 -266 2906 331 
L 2906 616 
Q 2728 306 2450 153 
Q 2172 0 1784 0 
Q 1141 0 747 490 
Q 353 981 353 1791 
Q 353 2603 747 3093 
Q 1141 3584 1784 3584 
Q 2172 3584 2450 3431 
Q 2728 3278 2906 2969 
L 2906 3500 
L 3481 3500 
L 3481 434 
z
" transform="scale(0.015625)"/>
     </defs>
     <use xlink:href="#DejaVuSans-6c"/>
     <use xlink:href="#DejaVuSans-6f" transform="translate(27.783203 0)"/>
     <use xlink:href="#DejaVuSans-67" transform="translate(88.964844 0)"/>
    </g>
   </g>
   <g id="text_18">
    <!-- Linux Filesystem Hierarchy (FHS) -->
    <g style="fill: #222222" transform="translate(295.121484 18.597656) scale(0.15 -0.15)">
     <defs>
      <path id="DejaVuSans-Bold-4c" d="M 588 4666 
L 1791 4666 
L 1791 909 
L 3903 909 
L 3903 0 
L 588 0 
L 588 4666 
z
" transform="scale(0.015625)"/>
      <path id="DejaVuSans-Bold-78" d="M 1422 1791 
L 159 3500 
L 1344 3500 
L 2059 2463 
L 2784 3500 
L 3969 3500 
L 2706 1797 
L 4031 0 
L 2847 0 
L 2059 1106 
L 1281 0 
L 97 0 
L 1422 1791 
z
" transform="scale(0.015625)"/>
      <path id="DejaVuSans-Bold-20" transform="scale(0.015625)"/>
      <path id="DejaVuSans-Bold-46" d="M 588 4666 
L 3834 4666 
L 3834 3756 
L 1791 3756 
L 1791 2888 
L 3713 2888 
L 3713 1978 
L 1791 1978 
L 1791 0 
L 588 0 
L 588 4666 
z
" transform="scale(0.015625)"/>
      <path id="DejaVuSans-Bold-6c" d="M 538 4863 
L 1656 4863 
L 1656 0 
L 538 0 
L 538 4863 
z
" transform="scale(0.015625)"/>
      <path id="DejaVuSans-Bold-79" d="M 78 3500 
L 1197 3500 
L 2138 1125 
L 2938 3500 
L 4056 3500 
L 2584 -331 
Q 2363 -916 2067 -1148 
Q 1772 -1381 1288 -1381 
L 641 -1381 
L 641 -647 
L 991 -647 
Q 1275 -647 1404 -556 
Q 1534 -466 1606 -231 
L 1638 -134 
L 78 3500 
z
" transform="scale(0.015625)"/>
      <path id="DejaVuSans-Bold-48" d="M 588 4666 
L 1791 4666 
L 1791 2888 
L 3566 2888 
L 3566 4666 
L 4769 4666 
L 4769 0 
L 3566 0 
L 3566 1978 
L 1791 1978 
L 1791 0 
L 588 0 
L 588 4666 
z
" transform="scale(0.015625)"/>
      <path id="DejaVuSans-Bold-28" d="M 2413 -844 
L 1484 -844 
Q 1006 -72 778 623 
Q 550 1319 550 2003 
Q 550 2688 779 3389 
Q 1009 4091 1484 4856 
L 2413 4856 
Q 2013 4116 1813 3408 
Q 1613 2700 1613 2009 
Q 1613 1319 1811 609 
Q 2009 -100 2413 -844 
z
" transform="scale(0.015625)"/>
      <path id="DejaVuSans-Bold-53" d="M 3834 4519 
L 3834 3531 
Q 3450 3703 3084 3790 
Q 2719 3878 2394 3878 
Q 1963 3878 1756 3759 
Q 1550 3641 1550 3391 
Q 1550 3203 1689 3098 
Q 1828 2994 2194 2919 
L 2706 2816 
Q 3484 2659 3812 2340 
Q 4141 2022 4141 1434 
Q 4141 663 3683 286 
Q 3225 -91 2284 -91 
Q 1841 -91 1394 -6 
Q 947 78 500 244 
L 500 1259 
Q 947 1022 1364 901 
Q 1781 781 2169 781 
Q 2563 781 2772 912 
Q 2981 1044 2981 1288 
Q 2981 1506 2839 1625 
Q 2697 1744 2272 1838 
L 1806 1941 
Q 1106 2091 782 2419 
Q 459 2747 459 3303 
Q 459 4000 909 4375 
Q 1359 4750 2203 4750 
Q 2588 4750 2994 4692 
Q 3400 4634 3834 4519 
z
" transform="scale(0.015625)"/>
      <path id="DejaVuSans-Bold-29" d="M 513 -844 
Q 913 -100 1113 609 
Q 1313 1319 1313 2009 
Q 1313 2700 1113 3408 
Q 913 4116 513 4856 
L 1441 4856 
Q 1916 4091 2145 3389 
Q 2375 2688 2375 2003 
Q 2375 1319 2147 623 
Q 1919 -72 1441 -844 
L 513 -844 
z
" transform="scale(0.015625)"/>
     </defs>
     <use xlink:href="#DejaVuSans-Bold-4c"/>
     <use xlink:href="#DejaVuSans-Bold-69" transform="translate(63.720703 0)"/>
     <use xlink:href="#DejaVuSans-Bold-6e" transform="translate(97.998047 0)"/>
     <use xlink:href="#DejaVuSans-Bold-75" transform="translate(169.189453 0)"/>
     <use xlink:href="#DejaVuSans-Bold-78" transform="translate(240.380859 0)"/>
     <use xlink:href="#DejaVuSans-Bold-20" transform="translate(304.882812 0)"/>
     <use xlink:href="#DejaVuSans-Bold-46" transform="translate(339.697266 0)"/>
     <use xlink:href="#DejaVuSans-Bold-69" transform="translate(408.007812 0)"/>
     <use xlink:href="#DejaVuSans-Bold-6c" transform="translate(442.285156 0)"/>
     <use xlink:href="#DejaVuSans-Bold-65" transform="translate(476.5625 0)"/>
     <use xlink:href="#DejaVuSans-Bold-73" transform="translate(544.384766 0)"/>
     <use xlink:href="#DejaVuSans-Bold-79" transform="translate(603.90625 0)"/>
     <use xlink:href="#DejaVuSans-Bold-73" transform="translate(669.091797 0)"/>
     <use xlink:href="#DejaVuSans-Bold-74" transform="translate(728.613281 0)"/>
     <use xlink:href="#DejaVuSans-Bold-65" transform="translate(776.416016 0)"/>
     <use xlink:href="#DejaVuSans-Bold-6d" transform="translate(844.238281 0)"/>
     <use xlink:href="#DejaVuSans-Bold-20" transform="translate(948.4375 0)"/>
     <use xlink:href="#DejaVuSans-Bold-48" transform="translate(983.251953 0)"/>
     <use xlink:href="#DejaVuSans-Bold-69" transform="translate(1066.943359 0)"/>
     <use xlink:href="#DejaVuSans-Bold-65" transform="translate(1101.220703 0)"/>
     <use xlink:href="#DejaVuSans-Bold-72" transform="translate(1169.042969 0)"/>
     <use xlink:href="#DejaVuSans-Bold-61" transform="translate(1218.359375 0)"/>
     <use xlink:href="#DejaVuSans-Bold-72" transform="translate(1285.839844 0)"/>
     <use xlink:href="#DejaVuSans-Bold-63" transform="translate(1335.15625 0)"/>
     <use xlink:href="#DejaVuSans-Bold-68" transform="translate(1394.433594 0)"/>
     <use xlink:href="#DejaVuSans-Bold-79" transform="translate(1465.625 0)"/>
     <use xlink:href="#DejaVuSans-Bold-20" transform="translate(1530.810547 0)"/>
     <use xlink:href="#DejaVuSans-Bold-28" transform="translate(1565.625 0)"/>
     <use xlink:href="#DejaVuSans-Bold-46" transform="translate(1611.328125 0)"/>
     <use xlink:href="#DejaVuSans-Bold-48" transform="translate(1679.638672 0)"/>
     <use xlink:href="#DejaVuSans-Bold-53" transform="translate(1763.330078 0)"/>
     <use xlink:href="#DejaVuSans-Bold-29" transform="translate(1835.351562 0)"/>
    </g>
   </g>
   <g id="text_19">
    <!-- System dirs -->
    <g style="fill: #333333" transform="translate(101.60875 333.070387) scale(0.08 -0.08)">
     <defs>
      <path id="DejaVuSans-53" d="M 3425 4513 
L 3425 3897 
Q 3066 4069 2747 4153 
Q 2428 4238 2131 4238 
Q 1616 4238 1336 4038 
Q 1056 3838 1056 3469 
Q 1056 3159 1242 3001 
Q 1428 2844 1947 2747 
L 2328 2669 
Q 3034 2534 3370 2195 
Q 3706 1856 3706 1288 
Q 3706 609 3251 259 
Q 2797 -91 1919 -91 
Q 1588 -91 1214 -16 
Q 841 59 441 206 
L 441 856 
Q 825 641 1194 531 
Q 1563 422 1919 422 
Q 2459 422 2753 634 
Q 3047 847 3047 1241 
Q 3047 1584 2836 1778 
Q 2625 1972 2144 2069 
L 1759 2144 
Q 1053 2284 737 2584 
Q 422 2884 422 3419 
Q 422 4038 858 4394 
Q 1294 4750 2059 4750 
Q 2388 4750 2728 4690 
Q 3069 4631 3425 4513 
z
" transform="scale(0.015625)"/>
      <path id="DejaVuSans-79" d="M 2059 -325 
Q 1816 -950 1584 -1140 
Q 1353 -1331 966 -1331 
L 506 -1331 
L 506 -850 
L 844 -850 
Q 1081 -850 1212 -737 
Q 1344 -625 1503 -206 
L 1606 56 
L 191 3500 
L 800 3500 
L 1894 763 
L 2988 3500 
L 3597 3500 
L 2059 -325 
z
" transform="scale(0.015625)"/>
      <path id="DejaVuSans-20" transform="scale(0.015625)"/>
     </defs>
     <use xlink:href="#DejaVuSans-53"/>
     <use xlink:href="#DejaVuSans-79" transform="translate(63.476562 0)"/>
     <use xlink:href="#DejaVuSans-73" transform="translate(122.65625 0)"/>
     <use xlink:href="#DejaVuSans-74" transform="translate(174.755859 0)"/>
     <use xlink:href="#DejaVuSans-65" transform="translate(213.964844 0)"/>
     <use xlink:href="#DejaVuSans-6d" transform="translate(275.488281 0)"/>
     <use xlink:href="#DejaVuSans-20" transform="translate(372.900391 0)"/>
     <use xlink:href="#DejaVuSans-64" transform="translate(404.6875 0)"/>
     <use xlink:href="#DejaVuSans-69" transform="translate(468.164062 0)"/>
     <use xlink:href="#DejaVuSans-72" transform="translate(495.947266 0)"/>
     <use xlink:href="#DejaVuSans-73" transform="translate(537.060547 0)"/>
    </g>
    <!-- (bin, usr, var…) -->
    <g style="fill: #333333" transform="translate(94.056875 342.028637) scale(0.08 -0.08)">
     <defs>
      <path id="DejaVuSans-28" d="M 1984 4856 
Q 1566 4138 1362 3434 
Q 1159 2731 1159 2009 
Q 1159 1288 1364 580 
Q 1569 -128 1984 -844 
L 1484 -844 
Q 1016 -109 783 600 
Q 550 1309 550 2009 
Q 550 2706 781 3412 
Q 1013 4119 1484 4856 
L 1984 4856 
z
" transform="scale(0.015625)"/>
      <path id="DejaVuSans-2c" d="M 750 794 
L 1409 794 
L 1409 256 
L 897 -744 
L 494 -744 
L 750 256 
L 750 794 
z
" transform="scale(0.015625)"/>
      <path id="DejaVuSans-76" d="M 191 3500 
L 800 3500 
L 1894 563 
L 2988 3500 
L 3597 3500 
L 2284 0 
L 1503 0 
L 191 3500 
z
" transform="scale(0.015625)"/>
      <path id="DejaVuSans-2026" d="M 2869 794 
L 3531 794 
L 3531 0 
L 2869 0 
L 2869 794 
z
M 4997 794 
L 5663 794 
L 5663 0 
L 4997 0 
L 4997 794 
z
M 738 794 
L 1403 794 
L 1403 0 
L 738 0 
L 738 794 
z
" transform="scale(0.015625)"/>
      <path id="DejaVuSans-29" d="M 513 4856 
L 1013 4856 
Q 1481 4119 1714 3412 
Q 1947 2706 1947 2009 
Q 1947 1309 1714 600 
Q 1481 -109 1013 -844 
L 513 -844 
Q 928 -128 1133 580 
Q 1338 1288 1338 2009 
Q 1338 2731 1133 3434 
Q 928 4138 513 4856 
z
" transform="scale(0.015625)"/>
     </defs>
     <use xlink:href="#DejaVuSans-28"/>
     <use xlink:href="#DejaVuSans-62" transform="translate(39.013672 0)"/>
     <use xlink:href="#DejaVuSans-69" transform="translate(102.490234 0)"/>
     <use xlink:href="#DejaVuSans-6e" transform="translate(130.273438 0)"/>
     <use xlink:href="#DejaVuSans-2c" transform="translate(193.652344 0)"/>
     <use xlink:href="#DejaVuSans-20" transform="translate(225.439453 0)"/>
     <use xlink:href="#DejaVuSans-75" transform="translate(257.226562 0)"/>
     <use xlink:href="#DejaVuSans-73" transform="translate(320.605469 0)"/>
     <use xlink:href="#DejaVuSans-72" transform="translate(372.705078 0)"/>
     <use xlink:href="#DejaVuSans-2c" transform="translate(413.818359 0)"/>
     <use xlink:href="#DejaVuSans-20" transform="translate(445.605469 0)"/>
     <use xlink:href="#DejaVuSans-76" transform="translate(477.392578 0)"/>
     <use xlink:href="#DejaVuSans-61" transform="translate(536.572266 0)"/>
     <use xlink:href="#DejaVuSans-72" transform="translate(597.851562 0)"/>
     <use xlink:href="#DejaVuSans-2026" transform="translate(638.964844 0)"/>
     <use xlink:href="#DejaVuSans-29" transform="translate(738.964844 0)"/>
    </g>
   </g>
   <g id="text_20">
    <!-- User dirs -->
    <g style="fill: #333333" transform="translate(321.908125 333.070387) scale(0.08 -0.08)">
     <defs>
      <path id="DejaVuSans-55" d="M 556 4666 
L 1191 4666 
L 1191 1831 
Q 1191 1081 1462 751 
Q 1734 422 2344 422 
Q 2950 422 3222 751 
Q 3494 1081 3494 1831 
L 3494 4666 
L 4128 4666 
L 4128 1753 
Q 4128 841 3676 375 
Q 3225 -91 2344 -91 
Q 1459 -91 1007 375 
Q 556 841 556 1753 
L 556 4666 
z
" transform="scale(0.015625)"/>
     </defs>
     <use xlink:href="#DejaVuSans-55"/>
     <use xlink:href="#DejaVuSans-73" transform="translate(73.193359 0)"/>
     <use xlink:href="#DejaVuSans-65" transform="translate(125.292969 0)"/>
     <use xlink:href="#DejaVuSans-72" transform="translate(186.816406 0)"/>
     <use xlink:href="#DejaVuSans-20" transform="translate(227.929688 0)"/>
     <use xlink:href="#DejaVuSans-64" transform="translate(259.716797 0)"/>
     <use xlink:href="#DejaVuSans-69" transform="translate(323.193359 0)"/>
     <use xlink:href="#DejaVuSans-72" transform="translate(350.976562 0)"/>
     <use xlink:href="#DejaVuSans-73" transform="translate(392.089844 0)"/>
    </g>
    <!-- (home, opt) -->
    <g style="fill: #333333" transform="translate(316.11625 342.028637) scale(0.08 -0.08)">
     <defs>
      <path id="DejaVuSans-68" d="M 3513 2113 
L 3513 0 
L 2938 0 
L 2938 2094 
Q 2938 2591 2744 2837 
Q 2550 3084 2163 3084 
Q 1697 3084 1428 2787 
Q 1159 2491 1159 1978 
L 1159 0 
L 581 0 
L 581 4863 
L 1159 4863 
L 1159 2956 
Q 1366 3272 1645 3428 
Q 1925 3584 2291 3584 
Q 2894 3584 3203 3211 
Q 3513 2838 3513 2113 
z
" transform="scale(0.015625)"/>
     </defs>
     <use xlink:href="#DejaVuSans-28"/>
     <use xlink:href="#DejaVuSans-68" transform="translate(39.013672 0)"/>
     <use xlink:href="#DejaVuSans-6f" transform="translate(102.392578 0)"/>
     <use xlink:href="#DejaVuSans-6d" transform="translate(163.574219 0)"/>
     <use xlink:href="#DejaVuSans-65" transform="translate(260.986328 0)"/>
     <use xlink:href="#DejaVuSans-2c" transform="translate(322.509766 0)"/>
     <use xlink:href="#DejaVuSans-20" transform="translate(354.296875 0)"/>
     <use xlink:href="#DejaVuSans-6f" transform="translate(386.083984 0)"/>
     <use xlink:href="#DejaVuSans-70" transform="translate(447.265625 0)"/>
     <use xlink:href="#DejaVuSans-74" transform="translate(510.742188 0)"/>
     <use xlink:href="#DejaVuSans-29" transform="translate(549.951172 0)"/>
    </g>
   </g>
   <g id="text_21">
    <!-- Config files -->
    <g style="fill: #333333" transform="translate(531.89375 333.070387) scale(0.08 -0.08)">
     <defs>
      <path id="DejaVuSans-43" d="M 4122 4306 
L 4122 3641 
Q 3803 3938 3442 4084 
Q 3081 4231 2675 4231 
Q 1875 4231 1450 3742 
Q 1025 3253 1025 2328 
Q 1025 1406 1450 917 
Q 1875 428 2675 428 
Q 3081 428 3442 575 
Q 3803 722 4122 1019 
L 4122 359 
Q 3791 134 3420 21 
Q 3050 -91 2638 -91 
Q 1578 -91 968 557 
Q 359 1206 359 2328 
Q 359 3453 968 4101 
Q 1578 4750 2638 4750 
Q 3056 4750 3426 4639 
Q 3797 4528 4122 4306 
z
" transform="scale(0.015625)"/>
     </defs>
     <use xlink:href="#DejaVuSans-43"/>
     <use xlink:href="#DejaVuSans-6f" transform="translate(69.824219 0)"/>
     <use xlink:href="#DejaVuSans-6e" transform="translate(131.005859 0)"/>
     <use xlink:href="#DejaVuSans-66" transform="translate(194.384766 0)"/>
     <use xlink:href="#DejaVuSans-69" transform="translate(229.589844 0)"/>
     <use xlink:href="#DejaVuSans-67" transform="translate(257.373047 0)"/>
     <use xlink:href="#DejaVuSans-20" transform="translate(320.849609 0)"/>
     <use xlink:href="#DejaVuSans-66" transform="translate(352.636719 0)"/>
     <use xlink:href="#DejaVuSans-69" transform="translate(387.841797 0)"/>
     <use xlink:href="#DejaVuSans-6c" transform="translate(415.625 0)"/>
     <use xlink:href="#DejaVuSans-65" transform="translate(443.408203 0)"/>
     <use xlink:href="#DejaVuSans-73" transform="translate(504.931641 0)"/>
    </g>
    <!-- (fstab, hosts…) -->
    <g style="fill: #333333" transform="translate(523.7425 342.028637) scale(0.08 -0.08)">
     <use xlink:href="#DejaVuSans-28"/>
     <use xlink:href="#DejaVuSans-66" transform="translate(39.013672 0)"/>
     <use xlink:href="#DejaVuSans-73" transform="translate(74.21875 0)"/>
     <use xlink:href="#DejaVuSans-74" transform="translate(126.318359 0)"/>
     <use xlink:href="#DejaVuSans-61" transform="translate(165.527344 0)"/>
     <use xlink:href="#DejaVuSans-62" transform="translate(226.806641 0)"/>
     <use xlink:href="#DejaVuSans-2c" transform="translate(290.283203 0)"/>
     <use xlink:href="#DejaVuSans-20" transform="translate(322.070312 0)"/>
     <use xlink:href="#DejaVuSans-68" transform="translate(353.857422 0)"/>
     <use xlink:href="#DejaVuSans-6f" transform="translate(417.236328 0)"/>
     <use xlink:href="#DejaVuSans-73" transform="translate(478.417969 0)"/>
     <use xlink:href="#DejaVuSans-74" transform="translate(530.517578 0)"/>
     <use xlink:href="#DejaVuSans-73" transform="translate(569.726562 0)"/>
     <use xlink:href="#DejaVuSans-2026" transform="translate(621.826172 0)"/>
     <use xlink:href="#DejaVuSans-29" transform="translate(721.826172 0)"/>
    </g>
   </g>
   <g id="text_22">
    <g id="patch_22">
     <path d="M 301.345 297.665123 
L 571.055 297.665123 
Q 575.055 297.665123 575.055 293.665123 
L 575.055 267.751623 
Q 575.055 263.751623 571.055 263.751623 
L 301.345 263.751623 
Q 297.345 263.751623 297.345 267.751623 
L 297.345 293.665123 
Q 297.345 297.665123 301.345 297.665123 
z
" style="fill: #fafafa; stroke: #e0e0e0; stroke-linejoin: miter"/>
    </g>
    <!-- /bin — Commands    /home — Your files    /etc — Config -->
    <g style="fill: #555555" transform="translate(306.16125 273.872873) scale(0.08 -0.08)">
     <defs>
      <path id="DejaVuSansMono-2f" d="M 2778 4666 
L 3372 4666 
L 916 -594 
L 319 -594 
L 2778 4666 
z
" transform="scale(0.015625)"/>
      <path id="DejaVuSansMono-62" d="M 2869 1747 
Q 2869 2416 2656 2756 
Q 2444 3097 2028 3097 
Q 1609 3097 1393 2755 
Q 1178 2413 1178 1747 
Q 1178 1084 1393 740 
Q 1609 397 2028 397 
Q 2444 397 2656 737 
Q 2869 1078 2869 1747 
z
M 1178 3053 
Q 1316 3309 1558 3446 
Q 1800 3584 2119 3584 
Q 2750 3584 3112 3098 
Q 3475 2613 3475 1759 
Q 3475 894 3111 401 
Q 2747 -91 2113 -91 
Q 1800 -91 1561 45 
Q 1322 181 1178 441 
L 1178 0 
L 603 0 
L 603 4863 
L 1178 4863 
L 1178 3053 
z
" transform="scale(0.015625)"/>
      <path id="DejaVuSansMono-69" d="M 800 3500 
L 2272 3500 
L 2272 447 
L 3413 447 
L 3413 0 
L 556 0 
L 556 447 
L 1697 447 
L 1697 3053 
L 800 3053 
L 800 3500 
z
M 1697 4863 
L 2272 4863 
L 2272 4134 
L 1697 4134 
L 1697 4863 
z
" transform="scale(0.015625)"/>
      <path id="DejaVuSansMono-6e" d="M 3284 2169 
L 3284 0 
L 2706 0 
L 2706 2169 
Q 2706 2641 2540 2862 
Q 2375 3084 2022 3084 
Q 1619 3084 1401 2798 
Q 1184 2513 1184 1978 
L 1184 0 
L 609 0 
L 609 3500 
L 1184 3500 
L 1184 2975 
Q 1338 3275 1600 3429 
Q 1863 3584 2222 3584 
Q 2756 3584 3020 3232 
Q 3284 2881 3284 2169 
z
" transform="scale(0.015625)"/>
      <path id="DejaVuSansMono-20" transform="scale(0.015625)"/>
      <path id="DejaVuSansMono-2014" d="M 0 1978 
L 3853 1978 
L 3853 1538 
L 0 1538 
L 0 1978 
z
" transform="scale(0.015625)"/>
      <path id="DejaVuSansMono-43" d="M 3353 166 
Q 3113 38 2859 -26 
Q 2606 -91 2322 -91 
Q 1425 -91 929 543 
Q 434 1178 434 2328 
Q 434 3472 932 4111 
Q 1431 4750 2322 4750 
Q 2606 4750 2859 4686 
Q 3113 4622 3353 4494 
L 3353 3847 
Q 3122 4038 2856 4138 
Q 2591 4238 2322 4238 
Q 1706 4238 1400 3763 
Q 1094 3288 1094 2328 
Q 1094 1372 1400 897 
Q 1706 422 2322 422 
Q 2597 422 2861 522 
Q 3125 622 3353 813 
L 3353 166 
z
" transform="scale(0.015625)"/>
      <path id="DejaVuSansMono-6f" d="M 1925 3097 
Q 1488 3097 1263 2756 
Q 1038 2416 1038 1747 
Q 1038 1081 1263 739 
Q 1488 397 1925 397 
Q 2366 397 2591 739 
Q 2816 1081 2816 1747 
Q 2816 2416 2591 2756 
Q 2366 3097 1925 3097 
z
M 1925 3584 
Q 2653 3584 3039 3112 
Q 3425 2641 3425 1747 
Q 3425 850 3040 379 
Q 2656 -91 1925 -91 
Q 1197 -91 812 379 
Q 428 850 428 1747 
Q 428 2641 812 3112 
Q 1197 3584 1925 3584 
z
" transform="scale(0.015625)"/>
      <path id="DejaVuSansMono-6d" d="M 2113 3144 
Q 2219 3369 2383 3476 
Q 2547 3584 2778 3584 
Q 3200 3584 3373 3257 
Q 3547 2931 3547 2028 
L 3547 0 
L 3022 0 
L 3022 2003 
Q 3022 2744 2939 2923 
Q 2856 3103 2638 3103 
Q 2388 3103 2295 2911 
Q 2203 2719 2203 2003 
L 2203 0 
L 1678 0 
L 1678 2003 
Q 1678 2753 1589 2928 
Q 1500 3103 1269 3103 
Q 1041 3103 952 2911 
Q 863 2719 863 2003 
L 863 0 
L 341 0 
L 341 3500 
L 863 3500 
L 863 3200 
Q 966 3388 1120 3486 
Q 1275 3584 1472 3584 
Q 1709 3584 1867 3475 
Q 2025 3366 2113 3144 
z
" transform="scale(0.015625)"/>
      <path id="DejaVuSansMono-61" d="M 2194 1759 
L 2003 1759 
Q 1500 1759 1245 1582 
Q 991 1406 991 1056 
Q 991 741 1181 566 
Q 1372 391 1709 391 
Q 2184 391 2456 720 
Q 2728 1050 2731 1631 
L 2731 1759 
L 2194 1759 
z
M 3309 1997 
L 3309 0 
L 2731 0 
L 2731 519 
Q 2547 206 2267 57 
Q 1988 -91 1588 -91 
Q 1053 -91 734 211 
Q 416 513 416 1019 
Q 416 1603 808 1906 
Q 1200 2209 1959 2209 
L 2731 2209 
L 2731 2300 
Q 2728 2719 2518 2908 
Q 2309 3097 1850 3097 
Q 1556 3097 1256 3012 
Q 956 2928 672 2766 
L 672 3341 
Q 991 3463 1283 3523 
Q 1575 3584 1850 3584 
Q 2284 3584 2592 3456 
Q 2900 3328 3091 3072 
Q 3209 2916 3259 2686 
Q 3309 2456 3309 1997 
z
" transform="scale(0.015625)"/>
      <path id="DejaVuSansMono-64" d="M 2681 3053 
L 2681 4863 
L 3256 4863 
L 3256 0 
L 2681 0 
L 2681 441 
Q 2538 181 2298 45 
Q 2059 -91 1747 -91 
Q 1113 -91 748 401 
Q 384 894 384 1759 
Q 384 2613 750 3098 
Q 1116 3584 1747 3584 
Q 2063 3584 2303 3448 
Q 2544 3313 2681 3053 
z
M 991 1747 
Q 991 1078 1203 737 
Q 1416 397 1831 397 
Q 2247 397 2464 740 
Q 2681 1084 2681 1747 
Q 2681 2413 2464 2755 
Q 2247 3097 1831 3097 
Q 1416 3097 1203 2756 
Q 991 2416 991 1747 
z
" transform="scale(0.015625)"/>
      <path id="DejaVuSansMono-73" d="M 3041 3378 
L 3041 2816 
Q 2794 2959 2544 3031 
Q 2294 3103 2034 3103 
Q 1644 3103 1451 2976 
Q 1259 2850 1259 2591 
Q 1259 2356 1403 2240 
Q 1547 2125 2119 2016 
L 2350 1972 
Q 2778 1891 2998 1647 
Q 3219 1403 3219 1013 
Q 3219 494 2850 201 
Q 2481 -91 1825 -91 
Q 1566 -91 1281 -36 
Q 997 19 666 128 
L 666 722 
Q 988 556 1281 473 
Q 1575 391 1838 391 
Q 2219 391 2428 545 
Q 2638 700 2638 978 
Q 2638 1378 1872 1531 
L 1847 1538 
L 1631 1581 
Q 1134 1678 906 1908 
Q 678 2138 678 2534 
Q 678 3038 1018 3311 
Q 1359 3584 1991 3584 
Q 2272 3584 2531 3532 
Q 2791 3481 3041 3378 
z
" transform="scale(0.015625)"/>
      <path id="DejaVuSansMono-68" d="M 3284 2169 
L 3284 0 
L 2706 0 
L 2706 2169 
Q 2706 2641 2540 2862 
Q 2375 3084 2022 3084 
Q 1619 3084 1401 2798 
Q 1184 2513 1184 1978 
L 1184 0 
L 609 0 
L 609 4863 
L 1184 4863 
L 1184 2975 
Q 1338 3275 1600 3429 
Q 1863 3584 2222 3584 
Q 2756 3584 3020 3232 
Q 3284 2881 3284 2169 
z
" transform="scale(0.015625)"/>
      <path id="DejaVuSansMono-65" d="M 3475 1894 
L 3475 1613 
L 984 1613 
L 984 1594 
Q 984 1022 1282 709 
Q 1581 397 2125 397 
Q 2400 397 2700 484 
Q 3000 572 3341 750 
L 3341 178 
Q 3013 44 2708 -23 
Q 2403 -91 2119 -91 
Q 1303 -91 843 398 
Q 384 888 384 1747 
Q 384 2584 834 3084 
Q 1284 3584 2034 3584 
Q 2703 3584 3089 3131 
Q 3475 2678 3475 1894 
z
M 2900 2063 
Q 2888 2569 2661 2833 
Q 2434 3097 2009 3097 
Q 1594 3097 1325 2822 
Q 1056 2547 1006 2059 
L 2900 2063 
z
" transform="scale(0.015625)"/>
      <path id="DejaVuSansMono-59" d="M 116 4666 
L 788 4666 
L 1925 2606 
L 3059 4666 
L 3738 4666 
L 2241 2094 
L 2241 0 
L 1606 0 
L 1606 2094 
L 116 4666 
z
" transform="scale(0.015625)"/>
      <path id="DejaVuSansMono-75" d="M 609 1325 
L 609 3494 
L 1184 3494 
L 1184 1325 
Q 1184 853 1351 631 
Q 1519 409 1869 409 
Q 2275 409 2490 695 
Q 2706 981 2706 1516 
L 2706 3494 
L 3284 3494 
L 3284 0 
L 2706 0 
L 2706 525 
Q 2553 222 2289 65 
Q 2025 -91 1672 -91 
Q 1134 -91 871 261 
Q 609 613 609 1325 
z
" transform="scale(0.015625)"/>
      <path id="DejaVuSansMono-72" d="M 3609 2778 
Q 3425 2922 3234 2987 
Q 3044 3053 2816 3053 
Q 2278 3053 1993 2715 
Q 1709 2378 1709 1741 
L 1709 0 
L 1131 0 
L 1131 3500 
L 1709 3500 
L 1709 2816 
Q 1853 3188 2151 3386 
Q 2450 3584 2859 3584 
Q 3072 3584 3256 3531 
Q 3441 3478 3609 3366 
L 3609 2778 
z
" transform="scale(0.015625)"/>
      <path id="DejaVuSansMono-66" d="M 3322 4863 
L 3322 4384 
L 2669 4384 
Q 2359 4384 2239 4257 
Q 2119 4131 2119 3809 
L 2119 3500 
L 3322 3500 
L 3322 3053 
L 2119 3053 
L 2119 0 
L 1544 0 
L 1544 3053 
L 609 3053 
L 609 3500 
L 1544 3500 
L 1544 3744 
Q 1544 4319 1808 4591 
Q 2072 4863 2631 4863 
L 3322 4863 
z
" transform="scale(0.015625)"/>
      <path id="DejaVuSansMono-6c" d="M 1997 1269 
Q 1997 881 2139 684 
Q 2281 488 2559 488 
L 3231 488 
L 3231 0 
L 2503 0 
Q 1988 0 1705 331 
Q 1422 663 1422 1269 
L 1422 4447 
L 500 4447 
L 500 4897 
L 1997 4897 
L 1997 1269 
z
" transform="scale(0.015625)"/>
      <path id="DejaVuSansMono-74" d="M 1919 4494 
L 1919 3500 
L 3225 3500 
L 3225 3053 
L 1919 3053 
L 1919 1153 
Q 1919 766 2066 612 
Q 2213 459 2578 459 
L 3225 459 
L 3225 0 
L 2522 0 
Q 1875 0 1609 259 
Q 1344 519 1344 1153 
L 1344 3053 
L 409 3053 
L 409 3500 
L 1344 3500 
L 1344 4494 
L 1919 4494 
z
" transform="scale(0.015625)"/>
      <path id="DejaVuSansMono-63" d="M 3316 178 
Q 3084 44 2839 -23 
Q 2594 -91 2338 -91 
Q 1525 -91 1067 396 
Q 609 884 609 1747 
Q 609 2609 1067 3096 
Q 1525 3584 2338 3584 
Q 2591 3584 2831 3518 
Q 3072 3453 3316 3316 
L 3316 2713 
Q 3088 2916 2858 3006 
Q 2628 3097 2338 3097 
Q 1797 3097 1506 2747 
Q 1216 2397 1216 1747 
Q 1216 1100 1508 748 
Q 1800 397 2338 397 
Q 2638 397 2875 489 
Q 3113 581 3316 775 
L 3316 178 
z
" transform="scale(0.015625)"/>
      <path id="DejaVuSansMono-67" d="M 2681 1778 
Q 2681 2425 2470 2761 
Q 2259 3097 1856 3097 
Q 1434 3097 1212 2761 
Q 991 2425 991 1778 
Q 991 1131 1214 792 
Q 1438 453 1863 453 
Q 2259 453 2470 793 
Q 2681 1134 2681 1778 
z
M 3256 225 
Q 3256 -563 2884 -969 
Q 2513 -1375 1791 -1375 
Q 1553 -1375 1293 -1331 
Q 1034 -1288 775 -1203 
L 775 -634 
Q 1081 -778 1331 -847 
Q 1581 -916 1791 -916 
Q 2256 -916 2468 -662 
Q 2681 -409 2681 141 
L 2681 166 
L 2681 556 
Q 2544 263 2306 119 
Q 2069 -25 1728 -25 
Q 1116 -25 750 465 
Q 384 956 384 1778 
Q 384 2603 750 3093 
Q 1116 3584 1728 3584 
Q 2066 3584 2300 3450 
Q 2534 3316 2681 3034 
L 2681 3488 
L 3256 3488 
L 3256 225 
z
" transform="scale(0.015625)"/>
     </defs>
     <use xlink:href="#DejaVuSansMono-2f"/>
     <use xlink:href="#DejaVuSansMono-62" transform="translate(60.205078 0)"/>
     <use xlink:href="#DejaVuSansMono-69" transform="translate(120.410156 0)"/>
     <use xlink:href="#DejaVuSansMono-6e" transform="translate(180.615234 0)"/>
     <use xlink:href="#DejaVuSansMono-20" transform="translate(240.820312 0)"/>
     <use xlink:href="#DejaVuSansMono-2014" transform="translate(301.025391 0)"/>
     <use xlink:href="#DejaVuSansMono-20" transform="translate(361.230469 0)"/>
     <use xlink:href="#DejaVuSansMono-43" transform="translate(421.435547 0)"/>
     <use xlink:href="#DejaVuSansMono-6f" transform="translate(481.640625 0)"/>
     <use xlink:href="#DejaVuSansMono-6d" transform="translate(541.845703 0)"/>
     <use xlink:href="#DejaVuSansMono-6d" transform="translate(602.050781 0)"/>
     <use xlink:href="#DejaVuSansMono-61" transform="translate(662.255859 0)"/>
     <use xlink:href="#DejaVuSansMono-6e" transform="translate(722.460938 0)"/>
     <use xlink:href="#DejaVuSansMono-64" transform="translate(782.666016 0)"/>
     <use xlink:href="#DejaVuSansMono-73" transform="translate(842.871094 0)"/>
     <use xlink:href="#DejaVuSansMono-20" transform="translate(903.076172 0)"/>
     <use xlink:href="#DejaVuSansMono-20" transform="translate(963.28125 0)"/>
     <use xlink:href="#DejaVuSansMono-20" transform="translate(1023.486328 0)"/>
     <use xlink:href="#DejaVuSansMono-20" transform="translate(1083.691406 0)"/>
     <use xlink:href="#DejaVuSansMono-2f" transform="translate(1143.896484 0)"/>
     <use xlink:href="#DejaVuSansMono-68" transform="translate(1204.101562 0)"/>
     <use xlink:href="#DejaVuSansMono-6f" transform="translate(1264.306641 0)"/>
     <use xlink:href="#DejaVuSansMono-6d" transform="translate(1324.511719 0)"/>
     <use xlink:href="#DejaVuSansMono-65" transform="translate(1384.716797 0)"/>
     <use xlink:href="#DejaVuSansMono-20" transform="translate(1444.921875 0)"/>
     <use xlink:href="#DejaVuSansMono-2014" transform="translate(1505.126953 0)"/>
     <use xlink:href="#DejaVuSansMono-20" transform="translate(1565.332031 0)"/>
     <use xlink:href="#DejaVuSansMono-59" transform="translate(1625.537109 0)"/>
     <use xlink:href="#DejaVuSansMono-6f" transform="translate(1685.742188 0)"/>
     <use xlink:href="#DejaVuSansMono-75" transform="translate(1745.947266 0)"/>
     <use xlink:href="#DejaVuSansMono-72" transform="translate(1806.152344 0)"/>
     <use xlink:href="#DejaVuSansMono-20" transform="translate(1866.357422 0)"/>
     <use xlink:href="#DejaVuSansMono-66" transform="translate(1926.5625 0)"/>
     <use xlink:href="#DejaVuSansMono-69" transform="translate(1986.767578 0)"/>
     <use xlink:href="#DejaVuSansMono-6c" transform="translate(2046.972656 0)"/>
     <use xlink:href="#DejaVuSansMono-65" transform="translate(2107.177734 0)"/>
     <use xlink:href="#DejaVuSansMono-73" transform="translate(2167.382812 0)"/>
     <use xlink:href="#DejaVuSansMono-20" transform="translate(2227.587891 0)"/>
     <use xlink:href="#DejaVuSansMono-20" transform="translate(2287.792969 0)"/>
     <use xlink:href="#DejaVuSansMono-20" transform="translate(2347.998047 0)"/>
     <use xlink:href="#DejaVuSansMono-20" transform="translate(2408.203125 0)"/>
     <use xlink:href="#DejaVuSansMono-2f" transform="translate(2468.408203 0)"/>
     <use xlink:href="#DejaVuSansMono-65" transform="translate(2528.613281 0)"/>
     <use xlink:href="#DejaVuSansMono-74" transform="translate(2588.818359 0)"/>
     <use xlink:href="#DejaVuSansMono-63" transform="translate(2649.023438 0)"/>
     <use xlink:href="#DejaVuSansMono-20" transform="translate(2709.228516 0)"/>
     <use xlink:href="#DejaVuSansMono-2014" transform="translate(2769.433594 0)"/>
     <use xlink:href="#DejaVuSansMono-20" transform="translate(2829.638672 0)"/>
     <use xlink:href="#DejaVuSansMono-43" transform="translate(2889.84375 0)"/>
     <use xlink:href="#DejaVuSansMono-6f" transform="translate(2950.048828 0)"/>
     <use xlink:href="#DejaVuSansMono-6e" transform="translate(3010.253906 0)"/>
     <use xlink:href="#DejaVuSansMono-66" transform="translate(3070.458984 0)"/>
     <use xlink:href="#DejaVuSansMono-69" transform="translate(3130.664062 0)"/>
     <use xlink:href="#DejaVuSansMono-67" transform="translate(3190.869141 0)"/>
    </g>
    <!-- /opt — Software    /tmp — Temporary     /usr — Resources -->
    <g style="fill: #555555" transform="translate(301.345 282.937123) scale(0.08 -0.08)">
     <defs>
      <path id="DejaVuSansMono-70" d="M 1172 441 
L 1172 -1331 
L 594 -1331 
L 594 3500 
L 1172 3500 
L 1172 3053 
Q 1316 3313 1555 3448 
Q 1794 3584 2106 3584 
Q 2741 3584 3102 3093 
Q 3463 2603 3463 1734 
Q 3463 881 3100 395 
Q 2738 -91 2106 -91 
Q 1788 -91 1548 45 
Q 1309 181 1172 441 
z
M 2859 1747 
Q 2859 2416 2648 2756 
Q 2438 3097 2022 3097 
Q 1603 3097 1387 2755 
Q 1172 2413 1172 1747 
Q 1172 1084 1387 740 
Q 1603 397 2022 397 
Q 2438 397 2648 737 
Q 2859 1078 2859 1747 
z
" transform="scale(0.015625)"/>
      <path id="DejaVuSansMono-53" d="M 3163 4506 
L 3163 3866 
Q 2875 4050 2586 4144 
Q 2297 4238 2003 4238 
Q 1556 4238 1297 4030 
Q 1038 3822 1038 3469 
Q 1038 3159 1208 2996 
Q 1378 2834 1844 2725 
L 2175 2650 
Q 2831 2497 3131 2169 
Q 3431 1841 3431 1275 
Q 3431 609 3018 259 
Q 2606 -91 1819 -91 
Q 1491 -91 1159 -20 
Q 828 50 494 191 
L 494 863 
Q 853 634 1173 528 
Q 1494 422 1819 422 
Q 2297 422 2562 636 
Q 2828 850 2828 1234 
Q 2828 1584 2645 1768 
Q 2463 1953 2009 2053 
L 1672 2131 
Q 1022 2278 728 2575 
Q 434 2872 434 3372 
Q 434 3997 854 4373 
Q 1275 4750 1972 4750 
Q 2241 4750 2537 4689 
Q 2834 4628 3163 4506 
z
" transform="scale(0.015625)"/>
      <path id="DejaVuSansMono-77" d="M 0 3500 
L 569 3500 
L 1178 672 
L 1678 2478 
L 2169 2478 
L 2675 672 
L 3284 3500 
L 3853 3500 
L 3034 0 
L 2484 0 
L 1925 1919 
L 1369 0 
L 819 0 
L 0 3500 
z
" transform="scale(0.015625)"/>
      <path id="DejaVuSansMono-54" d="M 147 4666 
L 3706 4666 
L 3706 4134 
L 2247 4134 
L 2247 0 
L 1613 0 
L 1613 4134 
L 147 4134 
L 147 4666 
z
" transform="scale(0.015625)"/>
      <path id="DejaVuSansMono-79" d="M 2681 1125 
Q 2538 759 2316 163 
Q 2006 -663 1900 -844 
Q 1756 -1088 1540 -1209 
Q 1325 -1331 1038 -1331 
L 575 -1331 
L 575 -850 
L 916 -850 
Q 1169 -850 1312 -703 
Q 1456 -556 1678 56 
L 325 3500 
L 934 3500 
L 1972 763 
L 2994 3500 
L 3603 3500 
L 2681 1125 
z
" transform="scale(0.015625)"/>
      <path id="DejaVuSansMono-52" d="M 2375 2203 
Q 2619 2141 2791 1967 
Q 2963 1794 3219 1275 
L 3853 0 
L 3175 0 
L 2619 1178 
Q 2378 1681 2186 1826 
Q 1994 1972 1684 1972 
L 1081 1972 
L 1081 0 
L 447 0 
L 447 4666 
L 1747 4666 
Q 2516 4666 2925 4319 
Q 3334 3972 3334 3316 
Q 3334 2853 3082 2561 
Q 2831 2269 2375 2203 
z
M 1081 4147 
L 1081 2491 
L 1772 2491 
Q 2225 2491 2447 2694 
Q 2669 2897 2669 3316 
Q 2669 3719 2433 3933 
Q 2197 4147 1747 4147 
L 1081 4147 
z
" transform="scale(0.015625)"/>
     </defs>
     <use xlink:href="#DejaVuSansMono-2f"/>
     <use xlink:href="#DejaVuSansMono-6f" transform="translate(60.205078 0)"/>
     <use xlink:href="#DejaVuSansMono-70" transform="translate(120.410156 0)"/>
     <use xlink:href="#DejaVuSansMono-74" transform="translate(180.615234 0)"/>
     <use xlink:href="#DejaVuSansMono-20" transform="translate(240.820312 0)"/>
     <use xlink:href="#DejaVuSansMono-2014" transform="translate(301.025391 0)"/>
     <use xlink:href="#DejaVuSansMono-20" transform="translate(361.230469 0)"/>
     <use xlink:href="#DejaVuSansMono-53" transform="translate(421.435547 0)"/>
     <use xlink:href="#DejaVuSansMono-6f" transform="translate(481.640625 0)"/>
     <use xlink:href="#DejaVuSansMono-66" transform="translate(541.845703 0)"/>
     <use xlink:href="#DejaVuSansMono-74" transform="translate(602.050781 0)"/>
     <use xlink:href="#DejaVuSansMono-77" transform="translate(662.255859 0)"/>
     <use xlink:href="#DejaVuSansMono-61" transform="translate(722.460938 0)"/>
     <use xlink:href="#DejaVuSansMono-72" transform="translate(782.666016 0)"/>
     <use xlink:href="#DejaVuSansMono-65" transform="translate(842.871094 0)"/>
     <use xlink:href="#DejaVuSansMono-20" transform="translate(903.076172 0)"/>
     <use xlink:href="#DejaVuSansMono-20" transform="translate(963.28125 0)"/>
     <use xlink:href="#DejaVuSansMono-20" transform="translate(1023.486328 0)"/>
     <use xlink:href="#DejaVuSansMono-20" transform="translate(1083.691406 0)"/>
     <use xlink:href="#DejaVuSansMono-2f" transform="translate(1143.896484 0)"/>
     <use xlink:href="#DejaVuSansMono-74" transform="translate(1204.101562 0)"/>
     <use xlink:href="#DejaVuSansMono-6d" transform="translate(1264.306641 0)"/>
     <use xlink:href="#DejaVuSansMono-70" transform="translate(1324.511719 0)"/>
     <use xlink:href="#DejaVuSansMono-20" transform="translate(1384.716797 0)"/>
     <use xlink:href="#DejaVuSansMono-2014" transform="translate(1444.921875 0)"/>
     <use xlink:href="#DejaVuSansMono-20" transform="translate(1505.126953 0)"/>
     <use xlink:href="#DejaVuSansMono-54" transform="translate(1565.332031 0)"/>
     <use xlink:href="#DejaVuSansMono-65" transform="translate(1625.537109 0)"/>
     <use xlink:href="#DejaVuSansMono-6d" transform="translate(1685.742188 0)"/>
     <use xlink:href="#DejaVuSansMono-70" transform="translate(1745.947266 0)"/>
     <use xlink:href="#DejaVuSansMono-6f" transform="translate(1806.152344 0)"/>
     <use xlink:href="#DejaVuSansMono-72" transform="translate(1866.357422 0)"/>
     <use xlink:href="#DejaVuSansMono-61" transform="translate(1926.5625 0)"/>
     <use xlink:href="#DejaVuSansMono-72" transform="translate(1986.767578 0)"/>
     <use xlink:href="#DejaVuSansMono-79" transform="translate(2046.972656 0)"/>
     <use xlink:href="#DejaVuSansMono-20" transform="translate(2107.177734 0)"/>
     <use xlink:href="#DejaVuSansMono-20" transform="translate(2167.382812 0)"/>
     <use xlink:href="#DejaVuSansMono-20" transform="translate(2227.587891 0)"/>
     <use xlink:href="#DejaVuSansMono-20" transform="translate(2287.792969 0)"/>
     <use xlink:href="#DejaVuSansMono-20" transform="translate(2347.998047 0)"/>
     <use xlink:href="#DejaVuSansMono-2f" transform="translate(2408.203125 0)"/>
     <use xlink:href="#DejaVuSansMono-75" transform="translate(2468.408203 0)"/>
     <use xlink:href="#DejaVuSansMono-73" transform="translate(2528.613281 0)"/>
     <use xlink:href="#DejaVuSansMono-72" transform="translate(2588.818359 0)"/>
     <use xlink:href="#DejaVuSansMono-20" transform="translate(2649.023438 0)"/>
     <use xlink:href="#DejaVuSansMono-2014" transform="translate(2709.228516 0)"/>
     <use xlink:href="#DejaVuSansMono-20" transform="translate(2769.433594 0)"/>
     <use xlink:href="#DejaVuSansMono-52" transform="translate(2829.638672 0)"/>
     <use xlink:href="#DejaVuSansMono-65" transform="translate(2889.84375 0)"/>
     <use xlink:href="#DejaVuSansMono-73" transform="translate(2950.048828 0)"/>
     <use xlink:href="#DejaVuSansMono-6f" transform="translate(3010.253906 0)"/>
     <use xlink:href="#DejaVuSansMono-75" transform="translate(3070.458984 0)"/>
     <use xlink:href="#DejaVuSansMono-72" transform="translate(3130.664062 0)"/>
     <use xlink:href="#DejaVuSansMono-63" transform="translate(3190.869141 0)"/>
     <use xlink:href="#DejaVuSansMono-65" transform="translate(3251.074219 0)"/>
     <use xlink:href="#DejaVuSansMono-73" transform="translate(3311.279297 0)"/>
    </g>
    <!-- /var — Logs &amp; data -->
    <g style="fill: #555555" transform="translate(392.85375 291.946373) scale(0.08 -0.08)">
     <defs>
      <path id="DejaVuSansMono-76" d="M 313 3500 
L 909 3500 
L 1925 563 
L 2944 3500 
L 3541 3500 
L 2297 0 
L 1556 0 
L 313 3500 
z
" transform="scale(0.015625)"/>
      <path id="DejaVuSansMono-4c" d="M 672 4666 
L 1306 4666 
L 1306 531 
L 3559 531 
L 3559 0 
L 672 0 
L 672 4666 
z
" transform="scale(0.015625)"/>
      <path id="DejaVuSansMono-26" d="M 1709 2834 
L 3009 1088 
Q 3131 1241 3190 1475 
Q 3250 1709 3250 2034 
Q 3250 2134 3241 2353 
L 3238 2375 
L 3750 2375 
L 3750 2253 
Q 3750 1750 3634 1370 
Q 3519 991 3284 716 
L 3816 0 
L 3150 0 
L 2906 341 
Q 2647 122 2356 15 
Q 2066 -91 1734 -91 
Q 1059 -91 618 329 
Q 178 750 178 1388 
Q 178 1816 393 2181 
Q 609 2547 1044 2859 
Q 888 3084 813 3300 
Q 738 3516 738 3738 
Q 738 4206 1048 4478 
Q 1359 4750 1900 4750 
Q 2103 4750 2308 4712 
Q 2513 4675 2731 4603 
L 2731 4031 
Q 2547 4153 2351 4211 
Q 2156 4269 1941 4269 
Q 1638 4269 1463 4126 
Q 1288 3984 1288 3744 
Q 1288 3559 1378 3357 
Q 1469 3156 1709 2834 
z
M 1300 2509 
Q 1013 2281 870 2026 
Q 728 1772 728 1484 
Q 728 1013 1040 702 
Q 1353 391 1838 391 
Q 1969 391 2112 428 
Q 2256 466 2394 538 
Q 2478 584 2533 620 
Q 2588 656 2638 697 
L 1300 2509 
z
" transform="scale(0.015625)"/>
     </defs>
     <use xlink:href="#DejaVuSansMono-2f"/>
     <use xlink:href="#DejaVuSansMono-76" transform="translate(60.205078 0)"/>
     <use xlink:href="#DejaVuSansMono-61" transform="translate(120.410156 0)"/>
     <use xlink:href="#DejaVuSansMono-72" transform="translate(180.615234 0)"/>
     <use xlink:href="#DejaVuSansMono-20" transform="translate(240.820312 0)"/>
     <use xlink:href="#DejaVuSansMono-2014" transform="translate(301.025391 0)"/>
     <use xlink:href="#DejaVuSansMono-20" transform="translate(361.230469 0)"/>
     <use xlink:href="#DejaVuSansMono-4c" transform="translate(421.435547 0)"/>
     <use xlink:href="#DejaVuSansMono-6f" transform="translate(481.640625 0)"/>
     <use xlink:href="#DejaVuSansMono-67" transform="translate(541.845703 0)"/>
     <use xlink:href="#DejaVuSansMono-73" transform="translate(602.050781 0)"/>
     <use xlink:href="#DejaVuSansMono-20" transform="translate(662.255859 0)"/>
     <use xlink:href="#DejaVuSansMono-26" transform="translate(722.460938 0)"/>
     <use xlink:href="#DejaVuSansMono-20" transform="translate(782.666016 0)"/>
     <use xlink:href="#DejaVuSansMono-64" transform="translate(842.871094 0)"/>
     <use xlink:href="#DejaVuSansMono-61" transform="translate(903.076172 0)"/>
     <use xlink:href="#DejaVuSansMono-74" transform="translate(963.28125 0)"/>
     <use xlink:href="#DejaVuSansMono-61" transform="translate(1023.486328 0)"/>
    </g>
   </g>
  </g>
 </g>
 <defs>
  <clipPath id="p9684b61e42">
   <rect x="7.2" y="22.765345" width="858" height="375.092"/>
  </clipPath>
 </defs>
</svg>
